<?xml version="1.0" encoding="UTF-8" standalone="no"?>
<!DOCTYPE svg PUBLIC "-//W3C//DTD SVG 1.1//EN" "http://www.w3.org/Graphics/SVG/1.1/DTD/svg11.dtd">
<svg width="100%" height="100%" viewBox="0 0 755 868" version="1.1" xmlns="http://www.w3.org/2000/svg" xmlns:xlink="http://www.w3.org/1999/xlink" xml:space="preserve" xmlns:serif="http://www.serif.com/" style="fill-rule:evenodd;clip-rule:evenodd;stroke-linejoin:round;stroke-miterlimit:2;">
    <g transform="matrix(1,0,0,1,-90.5326,-107.021)">
        <g>
            <g transform="matrix(2.66337,0,0,2.66337,1.9996,0.99906)">
                <g id="_5e535c42c67e79a7a6962d19_peep-91.svg" serif:id="5e535c42c67e79a7a6962d19_peep-91.svg">
                    <g>
                        <g id="Introduction">
                            <g id="variations">
                                <g id="images">
                                    <g id="a-person-bust" serif:id="a-person/bust">
                                        <g id="body-Tee-1" serif:id="body/Tee-1" transform="matrix(1,0,0,1,31.0563,135.053)">
                                            <path id="ðŸŽ¨-Background" d="M163.581,116.882C162.729,112.07 161.948,107.246 161.239,102.412C160.902,100.117 160.574,97.819 160.278,95.518C160.071,93.906 159.756,92.062 160.853,90.868C162.396,89.188 163.797,87.749 163.986,85.342C164.164,83.077 163.398,80.608 162.919,78.409C161.916,73.798 160.666,69.244 159.285,64.734C157.882,60.151 156.343,55.611 154.783,51.08C153.323,46.844 151.921,42.57 150.021,38.505C146.414,30.792 140.313,25.08 132.772,21.266C130.897,20.317 127.071,16.931 125.112,16.173C123.311,15.476 123.317,17.511 121.545,16.744C120.127,16.132 118.808,15.314 118.014,13.945C117.153,12.459 114.992,10.38 114.663,8.65C113.966,4.983 114.721,1.862 112.105,-0.899C109.782,-3.35 106.66,-5.029 103.43,-5.93C96.324,-7.913 86.847,-6.527 82.559,0.079C80.512,3.234 79.796,7.047 77.033,9.621C74.62,11.869 75.16,13.406 72.035,14.565C71.858,14.631 67.06,13.601 66.883,13.667C63.465,12.935 60.197,14.984 57.061,16.173C52.385,17.945 47.933,20.251 43.75,22.993C35.317,28.521 28.094,35.699 22.139,43.822C16.134,52.011 11.476,61.191 8.159,70.785C7.353,73.115 6.629,75.474 5.991,77.856C5.634,79.189 5.252,80.571 5.687,81.936C6.043,83.052 6.834,83.884 7.764,84.553C9.023,85.461 11.55,86.052 11.501,87.878C11.464,89.267 10.993,90.728 10.763,92.101C10.489,93.735 10.264,95.379 10.04,97.02C9.017,104.491 8.221,112.005 7.869,119.539C7.523,126.958 7.235,134.528 7.75,141.945C7.784,142.434 7.93,142.883 8.165,143.262C7.945,143.346 7.928,143.756 8.201,143.814C8.393,143.854 8.584,143.895 8.775,143.935C9.173,144.236 9.669,144.421 10.239,144.439C10.626,144.451 11.013,144.469 11.399,144.488C15.477,145.341 19.554,146.147 23.685,146.757C28.706,147.498 33.742,148.102 38.794,148.594C49.175,149.603 59.474,149.269 69.868,148.724C80.246,148.181 90.619,148.054 101.008,148.324C111.406,148.595 121.8,149.047 132.201,149.233C143.82,149.439 155.422,149.122 167.008,148.198C168.596,148.071 169.579,146.807 169.266,145.228C167.389,135.772 165.262,126.379 163.581,116.882Z" style="fill:white;"/>
                                            <path id="ðŸ–-Ink" d="M63.641,13.434C64.716,13.388 65.811,13.562 66.883,13.667C66.977,13.676 67.012,13.82 66.907,13.842C64.989,14.243 63.091,14.792 61.207,15.349L60.4,15.588C58.276,16.216 56.213,16.865 54.156,17.704C50.057,19.375 46.163,21.631 42.58,24.223C28.782,34.203 18.795,49.313 12.493,64.957C10.782,69.206 9.331,73.56 8.157,77.988C7.871,79.065 7.602,80.147 7.348,81.231C7.273,81.55 6.947,82.364 7.126,82.69C7.284,82.977 7.898,83.155 8.183,83.305L9.147,83.804C11.027,84.774 14.158,86.367 14.472,86.522L14.961,86.763C22.971,90.691 31.528,94.022 40.541,94.252L40.612,93.482C41.014,89.226 41.541,84.946 42.692,80.82C42.754,80.598 43.036,80.673 43.062,80.87C43.703,85.755 43.498,90.677 43.274,95.584C42.878,104.276 42.352,112.962 41.885,121.65C41.65,125.996 41.348,130.339 41.075,134.682C40.801,139.035 40.713,143.492 40.088,147.808C39.949,148.77 38.822,149.293 37.969,149.192C37.025,149.08 36.299,148.248 36.295,147.295C36.283,144.78 36.599,142.236 36.775,139.727C36.941,137.344 37.12,134.962 37.304,132.58C37.974,123.887 38.745,115.204 39.458,106.515C39.71,103.433 39.983,100.354 40.264,97.275C30.717,96.967 21.797,93.429 13.287,89.296C13.164,92.093 12.867,94.886 12.579,97.672C11.775,105.447 11.066,113.218 10.535,121.017C10.268,124.956 10.073,128.9 9.903,132.844C9.819,134.783 9.751,136.722 9.699,138.661C9.682,139.308 9.666,139.954 9.652,140.601L9.623,142.082C9.599,143.021 9.504,143.89 8.714,144.573C7.913,145.267 6.83,145.304 6.036,144.573C4.974,143.595 5.162,142.261 5.193,140.947C5.219,139.839 5.251,138.73 5.287,137.622C5.361,135.406 5.454,133.19 5.568,130.975C5.967,123.232 6.763,115.52 7.803,107.839L8.209,104.874C8.968,99.362 9.801,93.725 11.496,88.415C10.836,88.086 10.178,87.756 9.522,87.423C8.359,86.834 7.156,86.281 6.025,85.631C5.128,85.115 4.355,84.407 4.105,83.363C3.826,82.2 4.252,80.927 4.535,79.792L4.56,79.692C4.837,78.549 5.136,77.412 5.451,76.278C6.729,71.684 8.31,67.179 10.159,62.784C13.863,53.985 18.643,45.626 24.482,38.068C29.739,31.264 35.948,25.095 43.225,20.467C46.783,18.205 50.574,16.348 54.584,15.034C56.458,14.42 58.497,13.887 60.459,13.667C61.518,13.548 62.578,13.481 63.641,13.434ZM82.679,-0.508C83.956,-1.88 86.493,-0.461 85.88,1.356C84.438,5.629 82.142,9.527 78.558,12.335C75.189,14.975 71.171,16.689 66.845,16.323C66.812,16.32 66.783,16.312 66.757,16.3L67.13,16.806C70.057,20.766 73.145,24.673 76.867,27.91C84.45,34.507 94.774,38.065 104.744,35.534C112.588,33.542 119.499,27.337 121.531,19.43C121.24,19.56 120.893,19.605 120.513,19.522C118.887,19.169 117.277,17.458 116.229,16.231C115.094,14.904 114.208,13.471 113.559,11.852C112.37,8.887 111.989,5.07 113.612,2.199C113.812,1.845 114.274,2.043 114.313,2.389L114.375,2.928C114.688,5.619 115.078,8.223 116.346,10.676C116.967,11.877 117.711,13.048 118.617,14.054C119.101,14.592 119.627,15.106 120.194,15.557C120.747,15.996 121.416,16.314 121.911,16.818L122.002,16.915L122.005,16.897C122.13,15.832 122.877,15.363 123.607,15.392C124.315,15.42 125.145,15.732 125.467,15.881L125.497,15.895C130.431,18.264 134.975,21.353 139.251,24.779C148.094,31.864 154.719,41.126 157.929,52.034C159.505,57.387 160.409,62.903 161.363,68.393L161.951,71.757C162.842,76.826 163.837,81.994 165.848,86.709C166.368,87.929 165.967,89.072 164.691,89.552C163.099,90.151 161.5,90.731 159.899,91.304C160.686,94.677 161.165,98.168 161.754,101.559C163.006,108.765 164.54,115.926 165.855,123.123C166.528,126.804 167.134,130.496 167.806,134.176C168.13,135.949 168.467,137.718 168.796,139.49C168.973,140.445 169.133,141.404 169.302,142.36L169.331,142.519C169.428,143.024 169.549,143.546 169.41,144.051C169.252,144.626 168.803,145.033 168.402,145.446C168.071,145.786 167.594,145.788 167.19,145.603L167.057,145.541C166.334,145.203 165.768,144.866 165.512,144.051C165.349,143.534 165.291,142.953 165.185,142.421C164.981,141.401 164.788,140.38 164.606,139.356C164.242,137.307 163.886,135.257 163.539,133.205L163.215,131.284C162.101,124.663 161.044,118.001 160.509,111.31C160.272,108.341 160.021,105.375 159.767,102.409L159.577,100.184C159.336,97.367 159.041,94.48 159,91.626L158.042,91.966L153.371,93.618C152.213,94.027 150.738,94.866 149.492,94.713C148.882,94.639 148.417,94.446 148.057,94.097C148.488,100.17 149.07,106.232 149.846,112.263C150.552,117.751 151.335,123.232 152.259,128.687C152.717,131.389 153.187,134.088 153.698,136.78C153.954,138.126 154.218,139.47 154.489,140.813C154.625,141.483 154.786,142.153 154.892,142.829C155.012,143.602 154.799,144.078 154.367,144.715C154.013,145.237 153.303,145.506 152.728,145.145C151.966,144.667 151.568,144.253 151.344,143.382C151.141,142.591 151.017,141.765 150.859,140.963C150.568,139.484 150.287,138.004 150.016,136.521C149.448,133.42 148.925,130.311 148.457,127.193C146.811,116.21 145.766,105.134 145.238,94.041C144.977,88.567 144.897,83.089 144.943,77.61C144.967,74.802 145.058,71.985 145.257,69.184C145.458,66.348 145.877,63.569 146.25,60.761C146.263,60.662 146.403,60.656 146.408,60.761C146.585,63.909 146.863,67.054 146.998,70.211C147.128,73.224 147.185,76.241 147.288,79.254C147.423,83.215 147.611,87.179 147.86,91.139C148.31,90.647 148.989,90.363 149.668,90.474C150.651,90.267 151.71,89.751 152.648,89.437L156.183,88.256C158.042,87.635 159.9,87.018 161.766,86.42C160.098,80.808 158.956,75.112 157.98,69.334L157.545,66.735C156.684,61.619 155.756,56.501 154.196,51.548C152.557,46.34 150.103,41.497 146.848,37.113C143.639,32.791 139.736,28.986 135.717,25.427C132.276,22.38 128.595,19.629 125.085,16.666C125.122,16.862 125.13,17.078 125.098,17.316C124.351,22.779 121.502,27.867 117.532,31.652C109.556,39.254 97.748,40.831 87.54,37.266C77.664,33.818 68.933,25.651 65.849,15.545C65.796,15.372 66.027,15.303 66.12,15.43C66.291,15.665 66.463,15.899 66.636,16.134C66.624,16.041 66.672,15.939 66.787,15.895C70.386,14.505 73.921,12.533 76.619,9.744C77.933,8.384 79.081,6.844 79.987,5.183C80.421,4.387 80.811,3.563 81.122,2.711L81.201,2.491C81.578,1.424 81.893,0.337 82.679,-0.508Z"/>
                                        </g>
                                        <g id="head-Twists-2" serif:id="head/Twists-2" transform="matrix(1,0,0,1,78.5915,38.0431)">
                                            <path id="ðŸŽ¨-Background1" serif:id="ðŸŽ¨-Background" d="M86.213,53.274C85.429,47.014 82.965,40.367 80.374,34.53C74.549,22.19 61.212,20.492 49.256,17.947C37.458,16.229 24.965,14.677 13.345,18.106C6.812,19.707 4.261,27.49 5.292,33.632C5.88,37.459 7.622,41.082 9.107,44.629C12.058,51.913 13.931,59.712 13.934,67.599C13.731,72.753 13.004,78.635 18.925,80.818C24.559,83.621 25.035,91.219 32.089,95.529C34.942,101.31 42.712,101.818 48.304,103.159C51.839,103.836 55.414,104.334 58.998,104.656C69.377,105.986 77.68,102.978 83.113,93.728C86.748,88.1 89.456,81.6 88.787,74.778C88.121,67.594 87.011,60.448 86.213,53.274Z" style="fill:white;"/>
                                            <path id="ðŸ–-Ink1" serif:id="ðŸ–-Ink" d="M49.346,2.95C49.938,2.279 50.851,2.509 51.405,3.04C51.766,3.146 52.115,3.304 52.445,3.514C53.191,3.418 53.973,3.418 54.704,3.445C54.882,3.345 55.072,3.257 55.279,3.181C56.758,2.64 58.067,2.914 59.147,3.639C59.668,3.146 60.324,2.837 61.163,2.884C61.912,2.926 62.446,3.278 62.903,3.743C63.359,3.085 64.097,2.615 65.015,2.55C66.299,2.459 67.534,2.974 68.556,3.771C69.152,3.087 69.965,2.694 70.87,2.69C71.466,2.582 72.095,2.625 72.663,2.796C73.488,3.046 74.212,3.512 74.789,4.118C75.701,3.244 76.818,2.615 78.106,2.707C79.773,2.827 81.155,4.053 81.797,5.563C82.925,6.015 83.967,6.659 84.837,7.579C84.884,7.627 84.928,7.678 84.974,7.729C85.444,7.902 85.885,8.147 86.274,8.47C87.505,9.496 87.78,10.979 87.372,12.433C87.429,12.666 87.478,12.903 87.522,13.139C88.676,13.315 89.724,13.981 90.32,15.065C91.135,16.553 90.974,18.514 90.091,19.934C89.712,20.545 89.23,21.06 88.689,21.51C89.301,22.901 89.007,24.561 88.02,25.685C87.78,26.073 87.485,26.423 87.152,26.74C87.519,28.178 86.867,29.661 85.566,30.43L85.454,30.708C85.436,30.755 85.417,30.801 85.397,30.846C85.383,30.906 85.365,30.963 85.347,31.02C85.316,31.531 85.148,32.031 84.815,32.503C84.132,33.47 83.286,34.1 82.838,35.229L82.793,35.347C82.6,35.882 81.977,36.258 81.447,36.094C84.393,42.147 85.938,48.882 86.998,55.483C87.527,58.776 87.935,62.081 88.266,65.398L88.591,68.701C88.876,71.637 89.131,74.583 89.132,77.529C89.136,84.193 87.231,90.603 83.141,95.906C79.272,100.919 73.798,104.552 67.615,105.983C61.23,107.458 53.741,106.877 48.015,103.5C46.327,102.507 47.806,100.118 49.524,100.917C52.775,102.431 56.079,103.555 59.684,103.807C63.197,104.054 66.719,103.614 70.051,102.464C75.563,100.56 80.253,96.572 83.267,91.605C84.753,89.158 85.828,86.501 86.401,83.694C87.113,80.196 87.006,76.58 86.744,73.037L86.726,72.795C86.208,65.968 85.526,59.099 84.423,52.341C83.448,46.364 81.949,40.508 80.003,34.782C79.241,34.111 78.388,33.555 77.476,33.134C70.794,32.854 64.1,32.936 57.427,33.397C51.736,33.793 46.073,34.463 40.452,35.439L39.85,35.545C38.605,35.766 37.224,35.893 36.051,36.394C35.046,36.825 34.638,37.654 34.384,38.672C33.746,41.249 33.649,44.068 33.541,46.71C33.436,49.293 33.674,51.897 33.467,54.471C33.292,56.625 32.741,58.829 31.146,60.387C30.311,61.202 29.284,61.648 28.321,62.268C27.698,62.667 27.434,63.079 27.514,63.819C27.687,65.438 28.991,67.477 27.527,68.864C27.269,69.107 26.823,69.139 26.57,68.864C25.965,68.207 25.131,67.706 24.415,67.175C24.115,66.956 24.364,66.529 24.704,66.681C25.152,66.882 25.608,67.118 26.075,67.325C25.044,66.476 23.578,66.059 22.357,65.812C21.742,65.689 21.096,65.653 20.455,65.711C19.982,65.937 19.498,66.146 19.015,66.351C18.4,66.609 17.779,66.843 17.153,67.065C14.984,68.834 13.948,71.711 14.401,74.524C14.648,76.077 15.364,77.766 16.714,78.673C18.313,79.746 20.455,79.286 22.184,80.083C23.802,80.828 24.786,82.336 25.524,83.895L25.831,84.545C26.516,85.982 27.219,87.382 28.154,88.691C29.236,90.206 30.56,91.567 32.005,92.736C32.707,93.302 33.454,93.811 34.226,94.274L34.437,94.399C35.219,94.858 35.779,95.295 35.832,96.265C35.848,96.604 35.635,96.912 35.36,97.088C34.177,97.838 33.001,96.899 32.016,96.244C30.953,95.538 29.937,94.744 28.997,93.877C27.21,92.233 25.663,90.28 24.474,88.16C23.567,86.546 23.052,84.274 21.62,83.022C20.745,82.259 19.509,82.253 18.417,82.113C17.401,81.983 16.439,81.771 15.535,81.27C11.857,79.227 10.817,74.279 11.69,70.456C11.838,69.811 12.045,69.183 12.301,68.578C10.932,68.807 9.394,67.391 9.949,65.962C9.991,65.854 10.04,65.753 10.086,65.649C9.184,65.055 8.472,64.155 8.134,62.978C7.961,62.369 7.936,61.754 8.027,61.16C7.589,60.867 7.228,60.463 6.996,59.966C6.269,59.63 5.624,59.127 5.24,58.409C4.708,57.417 4.775,56.504 5.181,55.682C5.124,55.579 5.069,55.473 5.016,55.365C3.527,54.42 2.487,52.793 2.605,50.988C2.644,50.39 2.791,49.851 3.02,49.365C3.001,49.304 2.982,49.24 2.965,49.179C1.718,48.545 0.687,47.503 0.32,46.112C-0.048,44.713 0.385,43.318 1.251,42.244C-0.016,41.317 -0.779,40.021 -0.316,38.062C-0.128,37.265 0.25,36.54 0.761,35.929C0.759,35.91 0.755,35.891 0.751,35.872L0.632,35.78C-0.933,34.545 -1.832,32.97 -0.872,31.034C-0.441,30.164 0.174,29.557 0.896,29.157L0.932,29.043C0.415,27.934 0.239,26.702 0.596,25.406C0.888,24.339 1.579,23.489 2.462,22.925C2.403,22.447 2.411,21.938 2.506,21.386C2.665,20.454 3.127,19.641 3.803,19.064C3.829,18.941 3.86,18.821 3.896,18.7C4.124,17.962 4.551,17.161 5.046,16.567C5.453,16.075 5.91,15.895 6.467,15.876C6.434,15.422 6.457,14.961 6.55,14.494C6.835,13.053 7.752,11.698 9.11,11.083C9.668,10.831 10.255,10.757 10.822,10.819C11.303,9.804 12.244,9.069 13.399,8.91C13.849,8.847 14.267,8.851 14.652,8.908C14.87,8.807 15.096,8.716 15.332,8.633C15.489,8.578 15.647,8.528 15.805,8.477C16.34,7.813 17.044,7.283 17.865,6.964C18.814,6.594 19.779,6.632 20.635,6.942L20.908,6.885C21.334,6.146 22.015,5.573 23.06,5.313C24.248,5.019 25.467,5.429 26.401,6.175C26.405,6.175 26.409,6.175 26.415,6.173C26.903,5.08 27.738,4.32 29.139,4.372C30.011,4.406 30.799,4.84 31.408,5.457C31.746,5.414 32.084,5.376 32.424,5.338C32.783,4.918 33.182,4.525 33.624,4.172C34.346,3.593 35.286,3.639 35.819,4.455C35.935,4.632 36.043,4.812 36.151,4.992L36.639,4.958C37.213,4.182 37.997,3.658 39.07,3.616C40.055,3.576 40.756,4.058 41.291,4.732C41.726,4.721 42.163,4.713 42.601,4.706C43.11,4.117 43.71,3.597 44.394,3.166C44.918,2.836 45.691,2.948 46.116,3.388C46.403,3.687 46.67,3.999 46.918,4.321C47.558,3.604 48.422,3.131 49.346,2.95ZM18.252,70.064C19.239,69.502 20.565,70.111 21.52,70.589C22.684,71.17 23.84,72.047 24.552,73.146C25.522,74.642 23.242,75.851 22.222,74.509C21.594,73.683 21.094,72.85 20.333,72.127C19.638,71.464 18.63,71.02 18.231,70.145C18.216,70.115 18.22,70.081 18.252,70.064ZM18.945,33.744L18.964,33.691C19.244,32.923 18.02,32.592 17.741,33.354C17.32,34.508 17.806,35.763 18.945,36.261C19.261,36.399 19.622,36.351 19.812,36.034C19.972,35.766 19.898,35.303 19.585,35.166C18.944,34.886 18.729,34.391 18.945,33.744ZM8.396,31.597C9.009,31.056 8.11,30.161 7.5,30.7C6.931,31.203 6.508,31.885 6.618,32.671C6.73,33.471 7.333,34.036 7.993,34.435C8.693,34.858 9.331,33.762 8.633,33.34L8.555,33.292C8.262,33.11 7.919,32.86 7.869,32.502C7.817,32.121 8.138,31.824 8.396,31.597ZM11.875,22.05L11.919,22.018C12.577,21.548 11.945,20.447 11.279,20.923C10.668,21.359 10.178,21.925 10.127,22.706C10.077,23.465 10.463,24.124 10.968,24.658C11.53,25.252 12.425,24.354 11.864,23.761C11.318,23.183 11.211,22.553 11.875,22.05Z"/>
                                        </g>
                                        <g id="face-Smiling" serif:id="face/Smiling" transform="matrix(1,0,0,1,112.183,77.3542)">
                                            <path id="ðŸ–-Ink2" serif:id="ðŸ–-Ink" d="M30.969,50.92C29.549,50.34 28.282,49.373 27.355,48.138C27.033,47.709 26.95,47.256 27.017,46.841C27.093,46.375 27.369,45.952 27.745,45.669C28.122,45.384 28.594,45.244 29.05,45.316C29.447,45.378 29.841,45.595 30.154,46.045L30.219,46.135C30.77,46.881 31.487,47.492 32.305,47.886C33.093,48.266 33.975,48.444 34.887,48.341C36.624,48.144 37.822,47.204 39.095,45.928C39.253,45.767 39.41,45.6 39.569,45.432C39.669,45.278 39.808,45.18 39.963,45.128C40.134,45.071 40.328,45.074 40.506,45.136C40.677,45.196 40.83,45.309 40.933,45.46C41.03,45.604 41.085,45.781 41.068,45.984C40.951,47.307 40.26,48.488 39.278,49.415C38.187,50.444 36.741,51.157 35.38,51.407C33.881,51.682 32.353,51.485 30.969,50.92ZM36.088,30.512C37.683,31.482 40.114,33.744 38.397,36.149C36.377,38.27 33.469,35.838 32.035,34.739C30.706,33.887 29.213,36.078 30.446,37.074C40.803,44.745 45.006,30.766 36.894,29.371C36.001,29.218 35.67,30.212 36.088,30.512ZM17.527,21.589C17.704,19.4 21.036,18.903 21.367,21.069C21.664,23.009 21.315,24.791 20.441,26.538C19.607,28.207 17.509,27.428 17.35,25.909C17.137,23.872 17.418,22.95 17.527,21.589ZM42.893,20.62C43.358,20.011 44.028,19.595 44.832,19.83C47.343,20.564 46.603,24.13 45.721,25.866C45.242,26.809 43.693,27.048 42.993,26.218C41.852,24.864 41.306,22.161 42.756,20.828C42.796,20.759 42.839,20.69 42.893,20.62ZM20.406,12.011L20.803,11.942C22.03,11.729 23.555,11.525 24.423,12.512C24.884,13.036 25.042,14.008 24.423,14.509C23.335,15.39 22.131,15.049 20.827,15.123C19.752,15.185 18.719,15.363 17.684,15.659C15.412,16.309 13.561,17.494 11.621,18.796C11.366,18.967 11.107,18.641 11.228,18.403C12.348,16.209 14.518,14.406 16.692,13.307C17.853,12.721 19.122,12.234 20.406,12.011ZM40.604,11.028L40.908,11.09C44.211,11.781 48.504,13.161 50.068,16.407C50.128,16.866 50.065,16.965 50.013,17.029L49.996,17.05C49.954,17.105 49.92,17.181 49.722,17.243C49.666,17.23 49.611,17.216 49.554,17.202C48.837,17.014 48.27,16.755 47.721,16.486L47.125,16.192C46.434,15.853 45.737,15.527 44.998,15.286C43.422,14.771 41.8,14.409 40.153,14.215C39.797,14.173 39.453,14.053 39.182,13.846C38.924,13.65 38.728,13.379 38.638,13.018C38.522,12.551 38.555,12.198 38.806,11.777C38.994,11.46 39.263,11.241 39.573,11.115C39.888,10.987 40.247,10.957 40.604,11.028Z"/>
                                        </g>
                                        <g id="facial-hair-Moustache-5" serif:id="facial-hair/Moustache-5" transform="matrix(1,0,0,1,104.577,109.479)">
                                            <path id="ðŸ–-Ink3" serif:id="ðŸ–-Ink" d="M62.196,6.916C61.914,6.074 60.465,6.148 60.554,7.138C60.656,8.27 60.269,9.532 59.185,10.082C58.05,10.657 56.773,10.14 56.081,9.153C55.479,8.295 55.064,7.362 54.306,6.614C53.602,5.918 52.746,5.381 51.809,5.063C51.079,4.815 50.322,4.749 49.588,4.83C47.758,4.417 45.638,5.357 44.498,6.784C44.425,6.876 44.356,6.971 44.291,7.066C44.178,6.912 44.059,6.76 43.934,6.61C43.611,6.222 43.21,6.139 42.848,6.245C40.786,4.711 37.896,4.507 35.554,5.892C33.677,7.001 32.125,8.636 29.817,8.764C27.99,8.864 25.999,7.821 25.87,5.812C25.803,4.763 24.374,3.888 23.572,4.859C21.886,6.902 21.549,9.615 22.482,12.085C23.466,14.69 25.471,16.526 28.009,17.606C30.751,18.772 33.963,19.177 36.929,19.084C39.885,18.992 42.573,17.855 44.355,15.436C44.568,15.147 44.755,14.854 44.919,14.557C46.649,16.761 49.362,17.687 52.124,17.754C55.014,17.823 58.431,17.316 60.474,15.07C62.444,12.906 63.123,9.688 62.196,6.916"/>
                                        </g>
                                    </g>
                                </g>
                            </g>
                        </g>
                    </g>
                </g>
            </g>
            <g transform="matrix(2.66337,0,0,2.66337,215.069,214.069)">
                <g id="_5e535c225197058c80a6eabc_peep-90.svg" serif:id="5e535c225197058c80a6eabc_peep-90.svg">
                    <g>
                        <g id="Introduction1" serif:id="Introduction">
                            <g id="variations1" serif:id="variations">
                                <g id="images1" serif:id="images">
                                    <g id="a-person-bust1" serif:id="a-person/bust">
                                        <g id="body-Polka-Dot-Jacket" serif:id="body/Polka-Dot-Jacket" transform="matrix(1,0,0,1,31.0563,135.053)">
                                            <path id="ðŸŽ¨-Background2" serif:id="ðŸŽ¨-Background" d="M96.529,-8.223C102.684,-7.92 112.267,-5.28 112.746,-3.593C113.494,-0.959 111.887,8.917 114.576,14.237C115.722,16.504 120.074,16.301 121.761,17.039C127.404,19.51 144.109,24.197 147.553,30.097C148.933,32.462 157.413,61.795 161.92,76.76C162.428,78.447 163.001,80.007 163.625,81.452L163.854,80.329C165.692,71.285 166.61,65.809 166.61,63.903C166.61,60.924 164.235,48.358 166.61,45.162C168.961,41.998 174.628,39.411 177.177,39.36L177.254,39.359C178.927,39.359 180.38,38.835 181.611,37.789L183.416,36.881C192.597,32.272 197.961,29.743 199.508,29.296C201.977,28.582 206.178,30.103 204.077,32.387C202.677,33.909 199.158,36.602 193.52,40.465L191.395,42.155L191.651,42.289C194.399,43.736 196.014,44.954 196.497,45.943C196.996,46.962 196.757,48.167 195.78,49.559L195.928,49.704C197.163,50.916 197.781,51.729 197.781,52.144L197.781,54.166C199.009,55.966 199.316,57.467 198.702,58.669C198.088,59.872 197.114,60.913 195.78,61.795C194.797,64.381 193.627,66.221 192.269,67.316C190.911,68.411 188.564,69.323 185.229,70.051L182.21,77.271L179.764,87.415L178.532,98.733L178.89,98.993C180.548,100.201 181.611,101.097 181.611,102.023C181.611,103.465 174.919,137.382 164.507,138.9C162.255,139.229 150.577,137.618 146.742,134.498L146.799,134.835C147.701,140.286 147.51,143.117 146.226,143.328C130.447,145.916 85.634,146.715 11.786,145.726C11.346,106.516 13.333,80.403 17.746,67.387C29.032,34.096 41.475,22.726 45.828,21.752C49.642,20.899 62.865,15.634 66.561,14.237C68.974,13.324 69.491,10.59 72.24,10.59L72.462,10.591C75.122,10.618 77.48,11.093 78.804,9.725C82.281,6.135 81.309,1.165 82.752,-3.593C83.546,-6.215 88.977,-8.596 96.529,-8.223Z" style="fill:white;"/>
                                            <path id="ðŸ–-Ink4" serif:id="ðŸ–-Ink" d="M79.62,1.177C79.982,0.461 80.941,0.554 81.573,0.879C83.471,2.267 81.485,4.957 80.96,6.651C79.61,9.936 77.265,13.147 74.027,14.682C74.295,17.948 74.599,21.207 74.711,24.483C78.851,29.62 85.831,31.494 92.026,32.936C101.758,35.628 112.74,30.113 116.025,20.49C112.287,18.365 111.077,12.802 112.192,8.921C112.289,8.648 112.712,8.528 112.862,8.832C113.885,10.938 113.749,13.508 114.913,15.588C126.082,16.658 140.497,20.874 147.814,29.91C151.057,34.431 152.341,40.311 153.938,45.55C157.346,56.352 160.061,67.372 163.403,78.185L163.798,76.139C164.877,70.503 165.858,64.791 165.129,59.059L165.116,58.785C164.878,54.225 163.451,45.75 166.987,42.671C170.184,40.226 174.817,38.262 178.83,39.389C185.972,36.21 192.136,30.856 199.741,28.771C202.082,28.289 205.45,28.86 204.897,32.037C203.363,37.593 196.942,39.749 192.552,42.614C195.366,43.377 198.796,46.8 196.598,49.786C196.579,49.838 196.562,49.879 196.545,49.91C198.328,50.701 198.578,52.687 198.14,54.391C198.096,54.841 197.977,54.454 198.242,54.862C200.253,56.76 199.364,62.051 196.334,62.23C196.532,64.736 194.922,67.171 192.884,68.539C190.686,70.012 187.509,70.075 185.69,72.091C181.419,79.626 179.945,88.52 179.48,97.148C182.295,98.202 184.821,101.355 182.263,104.029C182.213,104.035 182.162,104.041 182.111,104.045C180.628,108.004 180.056,112.224 179.272,116.359C178.065,123.413 174.921,129.891 170.906,135.767C166.262,143.547 153.777,142.313 147.487,137.293C147.512,138.61 147.729,139.919 147.307,141.192C146.685,142.566 145.167,141.972 145.017,140.62C141.692,142.49 140.909,136.315 144.605,137.295C144.32,132.831 144.156,128.361 144.022,123.889C139.837,125.244 139.657,118.299 143.937,119.688L143.932,117.767C143.901,103.044 144.063,88.271 146.006,73.664C146.185,72.571 146.489,71.514 146.667,70.428C146.686,70.316 146.861,70.348 146.862,70.455C147.162,90.906 145.826,111.4 147.22,131.857C148.381,132.211 148.844,133.543 149.703,134.319C151.61,136.081 154.208,136.939 156.748,137.238C163.862,138.235 166.933,136.062 170.101,129.877C168.672,130.832 166.741,129.145 167.612,127.634L167.639,127.588C168.544,125.986 171.098,126.946 170.774,128.74C173.959,123.638 175.626,117.884 176.857,112.047L177.024,111.35C177.622,108.872 178.399,106.032 179.836,103.79C171.072,101.555 162.499,94.748 161.128,85.407C158.903,92.401 155.888,99.237 153.015,106.039C152.128,108.404 151.758,110.946 150.487,113.14C150.191,113.647 149.441,113.516 149.273,112.981C148.13,107.865 151.596,102.999 153.395,98.394C154.865,95.791 159.083,83.905 161.698,83.877C158.76,70.991 154.84,58.202 151.107,45.476C147.498,28.294 140.142,24.981 124.559,19.571C127.37,33.9 140.202,47.769 133.374,62.798L133.208,63.188C132.509,64.845 131.929,66.515 132.417,68.334C132.89,70.098 133.968,71.631 134.83,73.218C139.648,82.184 136.331,92.654 134.468,101.991C132.115,112.941 129.79,123.9 127.357,134.833C126.877,137.014 126.567,139.261 125.842,141.374C125.468,142.465 123.603,142.361 123.723,141.089C123.953,138.62 124.646,136.213 125.154,133.789C128.183,118.094 132.282,102.584 134.888,86.82C136.564,75.151 129.965,73.358 130.211,65.819C131.108,61.962 133.482,58.521 133.346,54.412C133.874,41.833 124.715,31.456 123.584,19.222L121.588,18.509C120.59,18.152 119.593,17.792 118.6,17.423C123.83,54.013 122.242,91.402 119.627,128.173C119.093,129.87 119.601,141.722 117.362,140.67C117.249,141.333 116.897,141.984 116.132,141.981C109.188,142.044 102.241,142.154 95.297,142.237C91.957,141.929 87.365,143.205 84.524,141.277C81.244,140.34 80.867,131.453 79.99,128.285L79.648,125.982C74.074,88.338 69.086,49.918 73.092,11.902C67.518,12.116 66.367,18.135 65.954,22.517C64.92,32.189 58.673,40.518 58.374,50.301C58.349,52.675 58.796,54.974 59.745,57.153C62.261,62.492 66.613,68.665 63.36,74.628C59.514,79.27 59.847,80.492 61.258,86.228C65.229,105.193 71.824,123.425 78.098,141.711C76.735,148.818 68.536,122.434 67.764,120.444C64.135,122.27 62.153,116.211 66.315,115.78C63.642,106.826 61.181,97.806 59.132,88.687L59.078,88.43C58.173,84.216 56.393,79.282 59.399,75.545C67.149,67.704 54.278,58.94 55.902,49.441C54.5,50.481 52.378,49.387 52.41,47.64C52.346,45.674 54.987,44.667 56.257,46.167C57.564,38.46 62.108,31.733 63.484,24.049L63.546,23.688C64.012,20.972 64.143,18.115 65.477,15.64C63.662,16.819 61.729,17.772 59.741,18.613C63.295,21.584 56.412,24.294 56.982,19.706C37.488,25.348 33.082,33.216 25.925,51.284C27.262,49.985 29.552,51.666 28.752,53.323C28.114,55.069 25.328,54.559 25.329,52.698L25.003,53.476C20.663,63.857 16.713,74.491 14.728,85.601C18.622,85.051 17.631,91.277 14.103,89.521C12.687,99.402 12.664,109.423 12.837,119.383C16.122,117.66 16.221,123.515 12.869,121.845C12.991,130.008 13.171,138.17 13.306,146.332C13.334,148.07 10.655,148.061 10.613,146.332C10.3,133.791 9.729,121.226 10.001,108.681C9.746,86.906 16.003,65.919 25.326,46.413C33.575,23.954 44.97,21.4 65.935,14.87C67.87,11.996 72.005,9.279 75.378,11.083C77.265,8.035 78.224,4.425 79.62,1.177ZM43.701,79.453C43.78,79.176 44.175,79.245 44.187,79.518C44.363,83.041 44.206,86.588 43.965,90.126C43.819,92.286 43.64,94.444 43.488,96.589C43.084,102.249 42.759,107.915 42.512,113.586C42.599,113.55 42.687,113.518 42.78,113.493C43.207,113.376 43.634,113.376 44.06,113.493C44.441,113.599 44.774,113.785 45.06,114.053L45.121,114.112C45.356,114.33 45.522,114.588 45.62,114.886C45.758,115.151 45.828,115.434 45.828,115.737L45.826,115.813C45.825,116.249 45.717,116.652 45.497,117.029C45.284,117.39 44.996,117.678 44.635,117.893C44.259,118.111 43.855,118.219 43.42,118.221C43.374,118.225 43.327,118.229 43.281,118.231C42.957,118.244 42.656,118.176 42.376,118.031L42.334,118.018C42.229,120.894 42.142,123.773 42.079,126.651C42.022,129.16 41.946,131.669 41.895,134.177L41.871,135.432L41.825,138.206C41.811,139.347 41.818,140.439 41.43,141.514L41.384,141.638C41.105,142.357 40.887,143.357 40.141,143.756C39.546,144.075 38.743,143.957 38.401,143.335C38.113,142.816 38.362,142.067 38.787,141.716C38.779,141.693 38.766,141.672 38.756,141.649C38.69,141.458 38.591,141.279 38.532,141.087C38.345,140.478 38.396,139.829 38.394,139.197C38.394,138.081 38.432,136.965 38.462,135.851C38.527,133.48 38.603,131.111 38.696,128.742C39.01,120.794 39.602,112.846 40.279,104.921L40.509,102.246C40.815,98.688 41.132,95.127 41.58,91.588C41.601,91.419 41.622,91.25 41.646,91.081C41.405,90.961 41.181,90.794 41.003,90.608C40.292,89.86 39.86,88.742 39.455,87.779L39.362,87.56C38.922,86.533 38.517,85.493 38.308,84.39L38.288,84.288C38.192,83.819 38.004,82.986 38.502,82.758C38.762,82.64 38.926,82.724 39.011,82.984C39.022,83.018 39.013,83.056 38.994,83.086C39.199,83.401 39.52,83.695 39.723,83.986L40.417,84.979L40.76,85.478C41.196,86.119 41.66,86.732 42.14,87.336C42.518,84.682 42.981,82.038 43.701,79.453ZM72.168,138.608C73.036,137.927 74.449,138.297 74.449,139.552C74.449,140.814 73.034,141.178 72.168,140.497L72.124,140.465L72.083,140.431C71.611,140.063 71.596,139.103 72.047,138.703L72.083,138.673C72.11,138.65 72.138,138.629 72.168,138.608ZM34.341,136.154L34.416,136.156C34.809,136.156 35.175,136.255 35.515,136.454C35.663,136.566 35.808,136.68 35.956,136.794C36.227,137.065 36.413,137.386 36.516,137.756L36.594,138.335C36.605,138.635 36.544,138.914 36.406,139.174C36.317,139.444 36.167,139.679 35.956,139.876C35.758,140.089 35.525,140.239 35.255,140.326C35.017,140.452 34.762,140.516 34.491,140.516L34.416,140.514C34.021,140.514 33.656,140.415 33.315,140.216C33.167,140.104 33.022,139.99 32.874,139.876C32.606,139.605 32.417,139.284 32.314,138.914C32.289,138.722 32.263,138.527 32.236,138.335C32.225,138.035 32.289,137.756 32.424,137.496C32.513,137.225 32.663,136.991 32.874,136.794C33.073,136.581 33.305,136.431 33.575,136.344C33.813,136.218 34.069,136.154 34.341,136.154ZM133.239,132.136L133.792,132.21C134.323,132.33 134.749,132.721 135.034,133.167C135.187,133.406 135.269,133.664 135.282,133.941C135.343,134.216 135.33,134.493 135.243,134.769C135.18,135.04 135.056,135.276 134.872,135.477C134.808,135.577 134.734,135.668 134.65,135.748C134.477,136.038 134.215,136.228 133.944,136.422C133.716,136.568 133.469,136.646 133.203,136.659C133.027,136.705 132.85,136.705 132.672,136.659C132.408,136.646 132.161,136.568 131.933,136.422C131.798,136.319 131.663,136.213 131.529,136.109C131.411,135.972 131.301,135.83 131.198,135.682C131.128,135.52 131.06,135.359 130.993,135.198C130.868,134.812 130.929,134.469 130.997,134.083C131.008,134.017 131.025,133.958 131.048,133.894L131.094,133.771C131.215,133.45 131.28,133.341 131.496,133.062L131.578,132.952C131.619,132.897 131.661,132.844 131.709,132.795C131.844,132.656 132.037,132.54 132.189,132.419C132.514,132.231 132.865,132.138 133.239,132.136ZM61.51,130.783L61.581,130.783C61.887,130.785 62.175,130.862 62.441,131.016L62.787,131.284C62.998,131.498 63.144,131.747 63.227,132.037C63.246,132.189 63.267,132.341 63.288,132.491C63.296,132.726 63.248,132.945 63.14,133.15C63.073,133.362 62.954,133.543 62.787,133.7C62.633,133.865 62.449,133.983 62.238,134.053C62.054,134.149 61.855,134.2 61.644,134.2L61.581,134.199C61.272,134.199 60.985,134.121 60.719,133.966L60.372,133.7C60.161,133.487 60.015,133.235 59.933,132.945C59.914,132.793 59.893,132.643 59.872,132.491C59.863,132.256 59.912,132.037 60.02,131.834C60.089,131.622 60.206,131.439 60.372,131.284C60.527,131.117 60.71,130.999 60.922,130.931C61.106,130.834 61.301,130.785 61.51,130.783ZM47.568,130.084C48.009,130.08 48.457,130.204 48.818,130.46C49.169,130.709 49.435,130.978 49.606,131.381C49.653,131.492 49.699,131.599 49.739,131.709C49.921,132.193 49.955,132.679 49.703,133.153C49.461,133.611 48.937,133.812 48.467,133.949C48.07,134.068 47.62,134.087 47.225,133.945C47.029,133.875 46.837,133.801 46.659,133.694C46.327,133.489 46.148,133.245 45.926,132.945C45.753,132.65 45.666,132.328 45.666,131.986C45.666,131.641 45.753,131.322 45.926,131.024C46.266,130.443 46.896,130.088 47.568,130.084ZM25.173,130.492C25.731,130.492 26.221,130.75 26.557,131.185C26.897,131.627 27.022,132.176 26.872,132.724C26.713,133.303 26.234,133.81 25.64,133.956C25.201,134.064 24.841,134.059 24.404,133.985C24.034,133.922 23.751,133.702 23.468,133.474C23.145,133.209 23.046,132.728 23.098,132.339C23.149,131.95 23.329,131.696 23.601,131.466L23.603,131.46L23.502,131.538C23.54,131.504 23.578,131.468 23.616,131.432C23.629,131.411 23.639,131.388 23.65,131.365C23.806,131.098 24.017,130.889 24.282,130.733C24.558,130.572 24.854,130.492 25.173,130.492ZM155.227,124.09C155.534,124.008 155.842,124.008 156.148,124.09C156.375,124.143 156.571,124.246 156.738,124.4C156.907,124.511 157.046,124.652 157.15,124.827L157.184,124.887C157.425,125.297 157.462,125.766 157.359,126.222C157.23,126.787 156.711,127.3 156.148,127.433L156.129,127.437L156.111,127.442C155.882,127.514 155.652,127.524 155.424,127.472C155.193,127.461 154.98,127.393 154.784,127.267C154.535,127.106 154.325,126.899 154.165,126.649C154.038,126.451 153.97,126.237 153.96,126.007C153.92,125.855 153.92,125.703 153.96,125.55C153.97,125.32 154.038,125.106 154.165,124.908L154.435,124.559L154.463,124.536C154.678,124.32 154.934,124.172 155.227,124.09ZM133.957,112.905C136.727,112.905 136.722,117.204 133.957,117.204C131.187,117.204 131.191,112.905 133.957,112.905ZM32.553,112.362C32.844,112.297 33.136,112.309 33.425,112.4C33.601,112.474 33.774,112.548 33.947,112.62L34.391,112.963C34.473,113.032 34.513,113.108 34.589,113.207L34.684,113.332C34.822,113.516 34.825,113.555 34.976,113.947C35.077,114.323 35.077,114.699 34.976,115.076C34.927,115.258 34.853,115.429 34.758,115.587C34.671,115.739 34.567,115.873 34.45,115.996L34.391,116.056C34.192,116.27 33.958,116.42 33.687,116.509C33.516,116.608 33.332,116.657 33.136,116.657C32.844,116.722 32.553,116.71 32.263,116.618C32.088,116.545 31.915,116.471 31.741,116.399L31.298,116.056L30.956,115.613L30.736,115.091L30.658,114.509C30.647,114.207 30.708,113.928 30.846,113.666C30.898,113.482 30.991,113.319 31.127,113.184C31.224,113.019 31.355,112.888 31.52,112.791C31.655,112.656 31.818,112.563 32.001,112.51C32.172,112.411 32.356,112.362 32.553,112.362ZM169.543,109.291C169.773,109.283 169.989,109.331 170.187,109.437C170.257,109.46 170.325,109.49 170.39,109.524C170.646,109.674 170.849,109.876 170.999,110.13C171.121,110.325 171.189,110.534 171.199,110.76C171.245,110.964 171.241,111.169 171.186,111.373L171.168,111.434C171.121,111.601 171.051,111.755 170.959,111.897C170.95,111.914 170.939,111.931 170.927,111.946C170.785,112.17 170.597,112.354 170.365,112.491C170.107,112.639 169.83,112.715 169.53,112.717C168.932,112.717 168.417,112.394 168.102,111.897C168.058,111.827 168.032,111.738 168.001,111.667C167.973,111.599 167.929,111.513 167.905,111.434C167.825,111.134 167.825,110.834 167.905,110.534C167.958,110.314 168.058,110.122 168.208,109.959C168.328,109.775 168.486,109.629 168.683,109.524C168.927,109.381 169.189,109.306 169.467,109.293L169.543,109.291ZM52.602,107.188C52.894,107.108 53.185,107.102 53.476,107.17L53.549,107.188C53.781,107.243 53.982,107.349 54.155,107.505C54.347,107.632 54.501,107.799 54.613,108.006C54.774,108.283 54.854,108.583 54.856,108.904C54.854,109.226 54.774,109.526 54.613,109.802C54.455,110.071 54.241,110.282 53.973,110.441L53.741,110.553C53.546,110.676 53.339,110.741 53.115,110.751C52.966,110.792 52.815,110.792 52.668,110.751C52.515,110.751 52.374,110.714 52.243,110.638C52.099,110.597 51.977,110.525 51.871,110.42C51.687,110.301 51.544,110.145 51.438,109.949L51.267,109.545L51.208,109.097L51.267,108.651L51.36,108.431C51.444,108.129 51.596,107.867 51.818,107.645C52.04,107.425 52.302,107.273 52.602,107.188ZM157.374,103.623C157.682,103.526 157.989,103.513 158.295,103.581C158.502,103.581 158.696,103.633 158.876,103.739C159.073,103.794 159.241,103.891 159.385,104.035C159.636,104.197 159.833,104.413 159.979,104.681L160.211,105.233C160.35,105.59 160.3,106.117 160.215,106.476C160.146,106.772 160.011,107.03 159.81,107.249C159.708,107.421 159.573,107.556 159.402,107.658C159.206,107.836 158.981,107.962 158.725,108.038L158.654,108.057L158.629,108.063C158.624,108.065 158.62,108.065 158.616,108.065C158.614,108.068 158.61,108.068 158.608,108.068C158.506,108.093 158.403,108.107 158.295,108.112C157.989,108.179 157.682,108.167 157.374,108.07C157.192,107.993 157.008,107.915 156.825,107.837C156.668,107.719 156.514,107.598 156.358,107.478C156.237,107.321 156.117,107.165 155.996,107.011C155.827,106.747 155.737,106.459 155.724,106.152C155.669,105.948 155.669,105.745 155.724,105.54C155.724,105.331 155.777,105.138 155.88,104.958C155.973,104.671 156.132,104.424 156.358,104.215C156.514,104.094 156.668,103.973 156.825,103.855C157.008,103.777 157.192,103.699 157.374,103.623ZM22.627,96.056C22.946,95.97 23.265,95.97 23.584,96.056L24.013,96.236C24.224,96.35 24.392,96.504 24.518,96.701C24.679,96.874 24.786,97.079 24.841,97.314C24.966,97.635 24.951,98.145 24.852,98.472C24.74,98.844 24.567,99.14 24.299,99.419C23.853,99.88 23.168,100.013 22.562,99.873C22.395,99.835 22.236,99.761 22.093,99.67C21.634,99.387 21.326,98.893 21.328,98.345C21.328,98.286 21.332,98.227 21.341,98.168C21.311,98.047 21.3,97.923 21.305,97.791L21.368,97.314L21.372,97.301C21.457,96.999 21.609,96.737 21.831,96.515C22.036,96.312 22.275,96.165 22.548,96.077L22.617,96.056L22.627,96.056ZM182.048,48.598C181.471,43.864 179.301,38.772 172.682,41.551L172.191,41.736C170.553,42.356 168.645,43.171 167.648,44.603C166.961,45.59 167.194,47.503 167.099,48.655C166.667,52.4 166.899,56.14 167.348,59.869C167.929,68.61 166.091,77.667 162.434,85.611C166.094,91.537 170.993,97.063 177.676,99.533C177.959,92.796 179.278,86.183 180.681,79.609L180.736,79.323C181.297,76.358 181.578,73.316 183.524,70.851C187.483,66.551 192.928,68.985 195.533,62.078C194.986,61.801 195.288,60.854 195.947,61.036C198.232,61.441 198.603,57.204 197.04,56.183C195.41,55.189 197.051,53.355 196.357,52.032C195.97,51.462 195.136,51.442 194.757,50.785C193.755,48.365 198.773,46.815 192.872,44.087C191.664,43.657 190.314,43.923 189.096,43.919C187.304,44.086 185.88,45.349 184.241,45.746C186.025,50.368 181.523,54.819 177.459,51.128C175.248,53.218 172.775,57.985 178.15,55.763C180.781,54.006 183.046,51.736 186.1,50.654L186.165,50.634C187.298,50.262 192.259,47.851 192.014,49.938C190.155,51.732 187.09,51.711 184.938,53.167C181.954,54.548 180.046,57.892 176.475,57.846C175.651,62.848 181.325,59.805 183.438,58.425L184.024,58.107C187.004,56.497 190.029,55.005 193.505,54.985C194.464,54.978 194.46,56.458 193.505,56.471C188.975,56.499 185.289,59.331 181.494,61.437C181.121,64.357 185.395,63.079 187.017,62.648C188.717,62.409 191.448,60.569 192.937,61.541C193.519,63.037 190.957,62.926 190.065,63.38C194.137,65.336 190.57,66.568 189.478,63.561L189.158,63.67C186.432,64.587 179.821,66.474 180.607,61.854C179.609,62.295 178.393,62.56 177.29,62.314C174.54,66.383 170.154,64.808 176.529,62.035C175.093,61.367 174.613,58.786 175.993,57.825C170.975,57.519 174.701,52.252 176.778,50.496C176.581,50.298 176.392,50.096 176.214,49.891C175.017,50.462 173.758,50.808 172.412,50.931C171.123,51.047 170.836,48.853 172.108,48.674C173.47,48.481 174.725,48.118 175.925,47.433C177.744,46.647 178.365,50.023 180.185,50.143C181.177,50.339 181.849,49.468 182.048,48.598ZM139.799,92.155C140.238,92.155 140.629,92.339 140.948,92.63C141.267,92.922 141.404,93.36 141.423,93.778C141.432,94.002 141.385,94.211 141.284,94.406C141.218,94.606 141.106,94.78 140.948,94.928C140.652,95.222 140.215,95.403 139.799,95.403C139.359,95.403 138.968,95.219 138.649,94.928C138.33,94.634 138.193,94.199 138.174,93.778C138.165,93.556 138.212,93.347 138.313,93.152C138.372,92.972 138.469,92.812 138.603,92.675L138.649,92.63C138.945,92.334 139.382,92.155 139.799,92.155ZM153.114,82.131L153.184,82.132C153.556,82.135 153.901,82.228 154.222,82.414C154.361,82.521 154.501,82.627 154.638,82.735C154.894,82.993 155.069,83.295 155.166,83.644C155.266,84.007 155.266,84.373 155.166,84.736C155.132,84.946 155.054,85.149 154.932,85.324C154.75,85.626 154.509,85.869 154.205,86.049C153.89,86.233 153.55,86.324 153.184,86.326C152.819,86.324 152.479,86.233 152.164,86.049C151.86,85.869 151.619,85.626 151.439,85.324C151.315,85.149 151.236,84.946 151.203,84.736C151.103,84.373 151.103,84.007 151.203,83.644C151.293,83.32 151.451,83.036 151.677,82.791L151.731,82.735C151.917,82.534 152.136,82.393 152.392,82.31C152.617,82.192 152.857,82.132 153.114,82.131ZM51.495,82.244C51.651,82.202 51.806,82.202 51.962,82.244C52.194,82.255 52.412,82.325 52.613,82.452C52.731,82.545 52.849,82.636 52.968,82.727L53.071,82.85C53.291,83.119 53.297,83.165 53.466,83.574C53.536,83.802 53.546,84.031 53.496,84.259C53.496,84.413 53.456,84.557 53.379,84.69C53.337,84.836 53.265,84.963 53.158,85.068C53.081,85.197 52.98,85.301 52.851,85.377C52.687,85.527 52.492,85.631 52.268,85.683L51.814,85.744C51.755,85.736 51.694,85.728 51.634,85.721C51.563,85.719 51.494,85.711 51.426,85.698L51.357,85.683L51.295,85.666C51.212,85.642 51.132,85.61 51.053,85.569C50.906,85.527 50.777,85.453 50.667,85.343C50.477,85.221 50.325,85.055 50.215,84.851L50.185,84.783C50.145,84.711 50.111,84.637 50.086,84.557C50.014,84.43 49.978,84.295 49.976,84.149C49.934,83.955 49.937,83.763 49.987,83.57L50.006,83.506L50.168,83.119C50.253,82.989 50.342,82.855 50.455,82.748C50.524,82.687 50.692,82.556 50.786,82.49L50.844,82.452C51.045,82.325 51.263,82.255 51.495,82.244ZM26.025,79.222C26.329,78.024 27.901,77.646 28.756,78.502C29.612,79.358 29.234,80.93 28.036,81.234L27.899,81.268C26.741,81.562 25.697,80.516 25.991,79.358L26.025,79.222ZM171.032,69.447C171.024,69.329 171.176,69.287 171.252,69.357C172.27,70.27 172.919,71.364 174.155,72.072C175.397,72.783 176.677,72.725 177.972,73.184C178.412,73.34 178.414,73.928 177.972,74.082C175.522,74.938 171.218,72.036 171.032,69.447ZM55.881,69.261C56.154,69.177 56.428,69.164 56.701,69.226C56.887,69.226 57.06,69.272 57.218,69.365C57.394,69.414 57.544,69.502 57.672,69.629C57.827,69.72 57.949,69.845 58.042,69.999C58.224,70.198 58.347,70.43 58.41,70.697L58.482,71.244L58.41,71.791C58.34,71.954 58.27,72.119 58.203,72.282L58.014,72.538C57.861,72.742 57.836,72.744 57.465,73.019C57.229,73.169 56.973,73.252 56.701,73.262C56.519,73.313 56.337,73.313 56.154,73.262C55.97,73.262 55.796,73.216 55.636,73.123C55.463,73.074 55.311,72.985 55.182,72.859C54.958,72.713 54.782,72.52 54.653,72.282C54.584,72.119 54.514,71.954 54.447,71.791L54.372,71.244L54.447,70.697L54.451,70.68C54.548,70.337 54.721,70.039 54.97,69.787L55.38,69.47C55.541,69.367 55.708,69.314 55.881,69.261ZM154.503,69.671C155.088,69.511 155.73,69.68 156.159,70.109C156.588,70.538 156.757,71.178 156.596,71.764C156.438,72.335 155.98,72.797 155.407,72.952C155.236,72.998 155.063,73.024 154.887,73.015C154.593,73.013 154.319,72.939 154.063,72.791L153.734,72.535C153.573,72.387 153.461,72.212 153.396,72.009C153.292,71.815 153.246,71.605 153.254,71.379L153.252,71.339C153.246,71.259 153.256,71.178 153.282,71.1C153.282,71.018 153.294,70.937 153.315,70.859C153.47,70.289 153.934,69.828 154.503,69.671ZM28.342,63.948C28.53,63.942 28.706,63.98 28.868,64.066C29.039,64.121 29.185,64.214 29.308,64.35C29.443,64.472 29.536,64.62 29.591,64.789C29.677,64.952 29.715,65.128 29.709,65.315C29.709,65.563 29.646,65.793 29.523,66.004C29.451,66.098 29.38,66.19 29.308,66.281C29.139,66.453 28.938,66.569 28.706,66.634L28.57,66.681C28.372,66.753 28.177,66.757 27.97,66.73C27.753,66.7 27.552,66.641 27.375,66.505C27.201,66.404 27.064,66.267 26.963,66.093L26.846,65.818C26.821,65.726 26.81,65.586 26.804,65.489C26.804,65.474 26.804,65.462 26.802,65.446C26.802,65.364 26.827,65.164 26.848,65.081C26.895,64.908 26.99,64.743 27.098,64.603C27.191,64.458 27.318,64.343 27.474,64.259L27.488,64.248L27.503,64.238C27.552,64.204 27.603,64.17 27.653,64.134C27.865,64.011 28.095,63.948 28.342,63.948ZM137.439,62.447C137.777,62.447 138.092,62.534 138.383,62.703C138.393,62.707 138.404,62.712 138.412,62.716C138.692,62.881 138.913,63.103 139.078,63.382C139.247,63.671 139.331,63.984 139.331,64.318C139.331,64.654 139.247,64.965 139.078,65.254C138.913,65.533 138.692,65.755 138.412,65.92C138.404,65.926 138.393,65.93 138.383,65.935C138.092,66.104 137.777,66.188 137.439,66.19C137.103,66.188 136.788,66.104 136.496,65.935C135.926,65.601 135.569,64.977 135.569,64.318C135.569,63.658 135.926,63.035 136.496,62.703C136.788,62.534 137.103,62.447 137.439,62.447ZM49.703,60.004L49.761,60.002C49.985,59.994 50.193,60.04 50.386,60.144C50.586,60.209 50.762,60.321 50.91,60.48L51.218,60.738L51.308,60.81C51.323,60.822 51.337,60.835 51.351,60.848C51.558,61.057 51.7,61.302 51.78,61.585C51.806,61.748 51.827,61.908 51.844,62.071C51.89,62.494 51.641,62.927 51.366,63.228C51.218,63.386 51.043,63.498 50.84,63.565C50.646,63.667 50.435,63.713 50.21,63.705C49.752,63.665 49.317,63.568 48.987,63.213C48.949,63.17 48.913,63.126 48.875,63.081L48.611,62.777C48.411,62.574 48.271,62.335 48.195,62.061C48.174,61.915 48.155,61.771 48.136,61.627C48.117,61.194 48.328,60.788 48.611,60.48C48.873,60.194 49.316,60.019 49.703,60.004ZM39.039,55.553C41.236,55.553 41.232,58.962 39.039,58.962C36.844,58.962 36.848,55.553 39.039,55.553ZM149.507,50.773L149.576,50.775C149.939,50.777 150.279,50.868 150.594,51.051L151.004,51.366C151.254,51.62 151.427,51.916 151.524,52.258C151.547,52.438 151.57,52.618 151.596,52.795C151.606,53.074 151.547,53.334 151.42,53.575C151.34,53.824 151.201,54.042 151.004,54.226C150.82,54.423 150.605,54.562 150.354,54.642C150.113,54.769 149.853,54.828 149.576,54.818C149.211,54.815 148.87,54.725 148.555,54.541C148.418,54.435 148.283,54.33 148.146,54.226C147.916,53.992 147.75,53.722 147.651,53.412L147.628,53.334L147.554,52.795C147.544,52.518 147.603,52.258 147.729,52.017C147.81,51.766 147.949,51.55 148.146,51.366C148.33,51.17 148.547,51.03 148.796,50.95C149.017,50.834 149.254,50.774 149.507,50.773ZM139.61,44.392C139.807,44.385 139.989,44.426 140.16,44.514C140.335,44.571 140.487,44.671 140.616,44.808C140.889,45.026 141.055,45.461 141.055,45.814C141.055,46.167 140.889,46.603 140.616,46.82C140.439,46.996 140.229,47.118 139.989,47.186L139.61,47.237C139.243,47.254 138.869,47.061 138.607,46.82C138.554,46.772 138.503,46.723 138.451,46.676C138.212,46.457 138.109,46.129 138.094,45.814C138.087,45.647 138.123,45.491 138.199,45.345C138.248,45.193 138.332,45.064 138.451,44.952C138.503,44.905 138.554,44.857 138.607,44.808C138.892,44.544 139.226,44.411 139.61,44.392ZM202.31,33.023C203.699,31.332 202.89,30.128 200.804,30.546C197.21,31.032 193.828,33.304 190.663,34.934C187.209,36.759 183.649,38.264 180.125,39.979C181.579,40.872 182.66,42.27 183.486,43.866C185.135,42.613 187.243,42.014 189.301,41.936C193.034,38.359 199.215,37.541 202.31,33.023ZM38.299,38.639C38.676,38.641 39.029,38.729 39.359,38.906L39.43,38.945L39.882,39.296C40.101,39.499 40.256,39.74 40.346,40.017C40.486,40.283 40.549,40.573 40.539,40.881C40.549,41.19 40.486,41.477 40.346,41.744C40.256,42.023 40.101,42.261 39.882,42.464C39.757,42.627 39.596,42.754 39.404,42.847C39.224,42.921 39.047,42.997 38.868,43.073C38.667,43.136 38.434,43.145 38.217,43.155C37.822,43.153 37.454,43.054 37.112,42.855L36.668,42.513C36.455,42.314 36.303,42.08 36.214,41.807C36.088,41.567 36.024,41.311 36.024,41.037L36.026,40.962C36.026,40.945 36.026,40.926 36.028,40.907C36.053,40.708 36.081,40.509 36.108,40.311C36.178,40.019 36.311,39.763 36.51,39.548C36.56,39.446 36.628,39.364 36.715,39.296C36.994,39.017 37.323,38.827 37.703,38.719C37.902,38.694 38.101,38.666 38.299,38.639ZM136.326,33.039L136.391,33.04C136.676,33.04 136.94,33.112 137.185,33.254C137.293,33.336 137.398,33.418 137.504,33.501C137.701,33.697 137.836,33.93 137.91,34.196L137.967,34.615C137.973,34.832 137.929,35.033 137.829,35.222C137.766,35.416 137.658,35.585 137.504,35.729C137.363,35.883 137.194,35.991 136.997,36.054C136.811,36.153 136.608,36.198 136.391,36.19C136.108,36.19 135.841,36.117 135.596,35.974C135.491,35.893 135.383,35.811 135.277,35.729C135.099,35.548 134.971,35.338 134.894,35.099L134.874,35.033L134.817,34.615C134.808,34.397 134.853,34.196 134.952,34.008C135.015,33.812 135.125,33.643 135.277,33.501C135.421,33.346 135.59,33.239 135.785,33.175C135.954,33.086 136.135,33.041 136.326,33.039ZM50.648,30.75L50.722,30.751C51.142,30.753 51.533,30.859 51.896,31.07C52.053,31.191 52.209,31.311 52.365,31.434C52.655,31.723 52.853,32.066 52.966,32.461L53.048,33.078C53.06,33.399 52.993,33.697 52.847,33.974C52.754,34.264 52.594,34.513 52.365,34.725C52.156,34.951 51.907,35.111 51.617,35.205C51.341,35.35 51.043,35.418 50.722,35.405C50.301,35.405 49.91,35.299 49.547,35.088C49.391,34.968 49.235,34.845 49.076,34.725C48.789,34.433 48.59,34.091 48.478,33.697L48.396,33.078C48.383,32.759 48.451,32.459 48.596,32.182C48.689,31.895 48.85,31.643 49.076,31.434C49.287,31.206 49.537,31.045 49.826,30.952C50.081,30.817 50.355,30.751 50.648,30.75ZM128.876,24.939C129.068,24.888 129.26,24.888 129.453,24.939C129.74,24.952 130.008,25.038 130.258,25.197L130.695,25.535C130.701,25.541 130.708,25.548 130.714,25.556C130.978,25.822 131.162,26.138 131.263,26.499L131.339,27.068C131.35,27.361 131.289,27.636 131.156,27.89C131.076,28.134 130.945,28.346 130.765,28.529L130.695,28.597C130.498,28.809 130.268,28.959 130,29.046C129.831,29.145 129.647,29.194 129.453,29.194C129.166,29.259 128.876,29.247 128.589,29.155C128.418,29.081 128.244,29.01 128.071,28.938L128.016,28.906C127.363,28.549 126.96,27.801 126.96,27.068C126.96,26.334 127.363,25.584 128.016,25.226C128.035,25.218 128.052,25.207 128.071,25.197C128.32,25.038 128.589,24.952 128.876,24.939Z"/>
                                        </g>
                                        <g id="head-Hijab" serif:id="head/Hijab" transform="matrix(1,0,0,1,78.5915,38.0431)">
                                            <path id="Path-2" d="M54.989,22.228C86.788,23.236 88.706,38.345 88.706,63.685C88.706,89.025 72.21,104.993 66.136,107.781C60.062,110.569 44.068,122.545 29.635,117.026C15.202,111.507 19.381,88.191 19.381,78.172C19.381,68.154 23.191,21.221 54.989,22.228Z" style="fill:white;"/>
                                            <path id="ðŸ–-Ink5" serif:id="ðŸ–-Ink" d="M67.889,99.459C62.05,102.72 55.363,102.847 49.082,100.794C45.315,99.567 41.861,97.669 38.629,95.399C35.817,93.422 33.307,91.231 30.82,88.904C28.773,84.387 26.95,79.879 26.096,74.965C25.331,70.554 25.23,65.974 26.117,61.572C32.68,56.172 39.201,50.728 45.715,45.267C49.031,42.485 52.357,39.719 55.722,36.996C57.431,35.614 59.124,34.211 60.827,32.822C61.108,32.594 61.387,32.366 61.668,32.137C65.183,34.711 68.952,36.918 72.442,39.535C74.269,40.906 76.046,42.367 77.738,43.903C78.626,44.708 79.492,45.539 80.337,46.391C81.11,47.169 81.856,48.284 82.953,48.578C83.103,48.618 83.244,48.627 83.377,48.608C84.843,61.449 85.885,75.316 79.604,86.978C76.864,92.066 72.979,96.614 67.889,99.459ZM29.901,104.178C29.097,103.441 30.296,102.249 31.096,102.983C36.126,107.591 42.701,110.034 49.342,111.165C50.414,111.348 49.957,112.977 48.893,112.795C41.959,111.615 35.144,108.982 29.901,104.178ZM23.866,111.249C22.906,110.734 23.761,109.275 24.719,109.789C28.638,111.892 32.935,112.984 37.295,113.722C38.367,113.903 37.909,115.532 36.846,115.352C32.338,114.589 27.915,113.422 23.866,111.249ZM39.814,40.019C43.065,37.1 46.56,34.322 50.251,31.979C53.986,29.607 58.065,28.189 62.474,28.155C62.166,28.403 61.872,28.677 61.574,28.933C60.742,29.645 59.912,30.362 59.081,31.076C57.421,32.507 55.756,33.936 54.117,35.39C50.888,38.256 47.65,41.107 44.428,43.979C38.236,49.5 32.177,55.14 26.248,60.944C26.28,60.803 26.314,60.661 26.348,60.52C28.31,52.319 33.649,45.554 39.814,40.019ZM65.301,28.513C65.322,28.449 65.337,28.388 65.346,28.329C73.807,29.432 80.874,35.66 83.21,43.861C83.008,44.144 82.896,44.48 82.938,44.837C82.959,45.017 82.98,45.199 83.001,45.378C82.712,45.091 82.414,44.822 82.161,44.567C81.317,43.713 80.453,42.882 79.566,42.073C77.751,40.418 75.867,38.871 73.881,37.427C70.427,34.917 66.687,32.609 62.569,31.404C62.84,31.182 63.111,30.96 63.383,30.74C64.196,30.078 64.951,29.533 65.301,28.513ZM80.47,19.744C75.275,14.065 68.081,9.905 60.506,8.46C53.272,7.077 45.782,7.988 38.948,10.675C24.647,16.297 13.363,28.659 8.079,42.984C4.999,51.33 3.989,60.479 4.915,69.314C5.836,78.108 8.483,87.19 13.3,94.672C13.741,95.357 14.225,96.014 14.732,96.65C14.506,99.233 13.644,101.764 12.288,103.967C12.215,104.085 12.138,104.201 12.062,104.317C10.673,105.357 9.232,106.333 7.826,107.341C6.607,108.215 5.401,109.111 4.255,110.078C3.173,110.991 1.916,112.008 1.184,113.241C0.584,114.25 0.339,115.623 1.158,116.586C2.145,117.746 3.818,117.337 5.155,117.337C5.27,117.337 5.384,117.34 5.498,117.341C5.9,117.593 6.314,117.822 6.715,118.034C10.765,120.182 14.829,122.306 18.898,124.419C27.003,128.631 35.073,133.013 43.344,136.891C47.177,138.69 51.28,140.262 55.572,140.256C59.599,140.249 63.239,138.649 66.383,136.217C69.966,133.446 72.962,129.927 75.869,126.478C77.031,125.097 78.169,123.701 79.287,122.284C81.434,121.568 83.563,121.359 85.477,122.741C87.013,123.851 89.037,122.342 89.073,120.676C89.086,120.085 89.061,119.501 88.997,118.926C88.613,115.375 86.876,112.163 84.919,109.183C83.851,107.553 82.725,105.953 81.592,104.368C81.326,103.994 81.064,103.62 80.81,103.24C85.359,96.54 88.967,89.111 91.186,81.348C93.516,73.179 94.308,64.708 93.789,56.244C92.99,43.271 89.432,29.542 80.47,19.744Z"/>
                                        </g>
                                        <g id="face-Calm" serif:id="face/Calm" transform="matrix(1,0,0,1,112.183,77.3542)">
                                            <path id="ðŸ–-Ink6" serif:id="ðŸ–-Ink" d="M36.136,50.758C34.579,51.209 32.909,51.249 31.322,50.783C29.883,50.361 28.406,49.431 27.347,48.201C26.406,47.108 25.797,45.78 25.821,44.363C25.824,44.201 25.881,44.066 25.97,43.961C26.066,43.848 26.2,43.77 26.344,43.737C26.491,43.702 26.647,43.714 26.78,43.775C26.9,43.829 27.003,43.922 27.067,44.057C27.23,44.271 27.392,44.482 27.555,44.687C28.863,46.303 30.131,47.511 32.098,47.945C33.166,48.18 34.232,48.076 35.211,47.717C36.258,47.333 37.205,46.658 37.946,45.794C38.282,45.403 38.678,45.244 39.065,45.241C39.503,45.238 39.937,45.442 40.263,45.768C40.584,46.088 40.799,46.523 40.819,46.979C40.836,47.378 40.706,47.796 40.359,48.168C39.217,49.395 37.737,50.294 36.136,50.758ZM36.088,30.512C37.683,31.482 40.114,33.744 38.397,36.149C36.377,38.27 33.469,35.838 32.035,34.739C30.706,33.887 29.213,36.078 30.446,37.074C40.803,44.745 45.006,30.766 36.894,29.371C36.001,29.218 35.67,30.212 36.088,30.512ZM21.164,26.243C20.651,25.915 20.048,25.803 19.379,26.107C18.857,26.345 17.941,27.137 17.303,28.178C16.867,28.891 16.557,29.727 16.622,30.597C16.637,30.8 16.562,30.949 16.444,31.059C16.351,31.146 16.217,31.21 16.059,31.23C15.925,31.247 15.775,31.232 15.653,31.194C15.421,31.121 15.298,30.971 15.252,30.848C14.806,29.661 14.998,28.338 15.498,27.144C16.174,25.532 17.4,24.182 18.203,23.747C19.578,23.002 21.2,22.968 22.577,23.727C23.749,24.373 24.482,25.416 25.211,26.479C25.366,26.705 25.519,26.929 25.678,27.149C25.997,27.591 26.028,28.029 25.905,28.405C25.768,28.821 25.42,29.172 24.984,29.355C24.582,29.525 24.114,29.549 23.701,29.375C23.351,29.227 23.031,28.94 22.828,28.452C22.486,27.631 21.917,26.725 21.164,26.243ZM47.206,28.07C46.855,28.253 46.58,28.309 46.19,28.192C45.975,28.127 45.762,28.003 45.595,27.836C45.43,27.671 45.311,27.466 45.265,27.238C45.151,26.675 44.843,26.148 44.404,25.805C44.03,25.511 43.556,25.356 43.032,25.443C42.465,25.538 41.926,25.901 41.554,26.33C41.43,26.473 41.333,26.636 41.235,26.798C41.052,27.1 40.874,27.381 40.621,27.603C40.526,27.688 40.381,27.746 40.242,27.746C40.185,27.746 40.127,27.737 40.072,27.72C39.509,27.154 39.4,26.724 39.418,26.299C39.437,25.852 39.613,25.4 39.898,24.978C40.565,23.989 41.832,23.177 42.686,22.994C43.857,22.742 45.019,23.044 45.951,23.698C46.91,24.371 47.621,25.416 47.842,26.593C47.896,26.877 47.873,27.183 47.765,27.448C47.66,27.708 47.476,27.93 47.206,28.07ZM23.745,15.693C23.043,16.378 22.211,16.484 21.37,16.578C20.903,16.631 20.53,16.674 20.163,16.757C19.154,16.985 18.156,17.328 17.246,17.822C16.295,18.339 15.258,18.962 14.512,19.76C14.335,19.95 14.168,20.15 14.001,20.349C13.848,20.531 13.701,20.707 13.546,20.876C13.368,21.07 13.199,21.274 13.031,21.477C12.927,21.648 12.906,21.69 12.885,21.734C12.854,21.8 12.817,21.874 12.775,21.953C12.718,22.061 12.651,22.18 12.581,22.287C12.464,22.484 12.401,22.538 12.347,22.562C12.257,22.602 12.171,22.622 12.088,22.612C12.011,22.601 11.938,22.564 11.865,22.503C11.505,22.198 11.398,21.698 11.409,21.167C11.426,20.361 11.723,19.469 11.997,18.921C12.634,17.646 13.517,16.321 14.579,15.37C15.791,14.285 17.116,13.463 18.639,12.896C19.586,12.544 20.681,12.221 21.712,12.262C22.454,12.291 23.163,12.512 23.748,13.063C24.107,13.401 24.28,13.882 24.28,14.363C24.28,14.854 24.1,15.347 23.745,15.693ZM48.634,21.963C48.59,22.036 48.528,22.087 48.459,22.117C48.387,22.149 48.306,22.158 48.229,22.145C48.152,22.132 48.079,22.097 48.021,22.044C47.966,21.993 47.923,21.925 47.904,21.842C47.438,19.793 46.532,18.268 44.6,17.285C43.649,16.801 42.555,16.494 41.52,16.249C41.22,16.178 40.902,16.132 40.582,16.085C39.579,15.938 38.568,15.771 37.914,14.96C37.52,14.471 37.355,13.846 37.449,13.275C37.537,12.737 37.851,12.243 38.422,11.948C39.845,11.212 41.612,11.934 43.048,12.549C43.155,12.594 43.26,12.639 43.362,12.682C44.767,13.276 46.048,14.058 47.101,15.178C47.936,16.066 48.711,17.38 49.022,18.73C49.282,19.854 49.221,21.002 48.634,21.963Z"/>
                                        </g>
                                        <g id="accessories-Glasses-5" serif:id="accessories/Glasses-5" transform="matrix(1,0,0,1,88.5211,88.9785)">
                                            <path id="ðŸ–-Ink7" serif:id="ðŸ–-Ink" d="M74.574,22.487C71.404,24.014 66.98,21.761 64.848,19.401C64.072,18.542 63.474,16.083 63.772,14.524C64.581,10.301 67.619,7.766 70.826,6.901C75.272,5.701 79.746,8.741 79.224,12.328C78.73,15.728 77.98,20.66 74.574,22.487M52.993,14.375C52.739,18.977 49.045,23.005 44.629,24.198C37.515,26.184 33.999,21.181 32.406,15.792C32.248,15.256 31.876,13.622 32.874,12.22C36.8,6.704 46.352,7.644 51.123,9.159C52.52,10.494 53.091,12.423 52.993,14.375M78.019,6.437C78.017,6.44 78.015,6.442 78.013,6.445C77.996,6.435 77.98,6.425 77.964,6.415C77.982,6.423 78.001,6.429 78.019,6.437M83.972,6.969C83.558,2.283 68.862,4.077 67.144,4.461C62.454,5.841 58.404,9.595 53.161,7.945C47.729,1.887 29.436,3.624 25.601,6.71C24.875,6.425 23.992,6.578 23.057,6.847C18.254,6.673 -3.672,8.33 0.812,14.462C1.493,14.934 2.173,14.454 2.192,13.481C25.571,5.038 23.305,12.946 26.078,12.022C26.501,12.144 26.943,12.221 27.329,12.303C29.476,12.993 30.204,12.78 30.487,15.19C32.429,33.799 57.201,27.376 55.169,12.112C57.181,12.001 58.941,11.131 61.068,11.981C62.545,26.36 74.112,26.941 77.593,21.956C80.218,18.496 79.177,13.275 82.786,10.553C84.21,11.746 84.302,7.721 83.972,6.969"/>
                                        </g>
                                    </g>
                                </g>
                            </g>
                        </g>
                    </g>
                </g>
            </g>
        </g>
    </g>
</svg>
