<?xml version="1.0" encoding="UTF-8" standalone="no"?>
<!DOCTYPE svg PUBLIC "-//W3C//DTD SVG 1.1//EN" "http://www.w3.org/Graphics/SVG/1.1/DTD/svg11.dtd">
<svg width="100%" height="100%" viewBox="0 0 755 868" version="1.1" xmlns="http://www.w3.org/2000/svg" xmlns:xlink="http://www.w3.org/1999/xlink" xml:space="preserve" xmlns:serif="http://www.serif.com/" style="fill-rule:evenodd;clip-rule:evenodd;stroke-linejoin:round;stroke-miterlimit:2;">
    <g transform="matrix(1,0,0,1,-90.5326,-107.021)">
        <g id="header_people_right.svg" transform="matrix(1.0316,0,0,1.0316,482.994,522.021)">
            <g transform="matrix(1,0,0,1,-426,-538)">
                <g transform="matrix(1,0,0,1,-853,-3)">
                    <g transform="matrix(-2.66584,0,0,2.66584,1705.02,2.99992)">
                        <g id="_5e53510f2b568ad72715a304_peep-8.svg" serif:id="5e53510f2b568ad72715a304_peep-8.svg">
                            <g>
                                <g id="Introduction">
                                    <g id="variations">
                                        <g id="images">
                                            <g id="a-person-bust" serif:id="a-person/bust">
                                                <g id="body-Hoodie" serif:id="body/Hoodie" transform="matrix(1,0,0,1,31.0563,135.053)">
                                                    <path id="ðŸŽ¨-Background" d="M167.059,151.26C171.142,151.063 169.5,143.919 169.207,141.295C165.975,131.711 166.735,121.255 165.463,111.21C164.671,101.833 163.653,92.485 162.797,83.115C161.116,64.095 149.043,25.375 135.265,19.147C133.529,11.529 126.361,4.418 117.291,4.418C111.105,-2.908 103.66,-8.063 94.11,-7.022C90.163,-6.842 86.336,-2.655 82.554,-1.847C80.437,-1.554 61.647,-2.306 57.883,-0.07C55.261,1.277 52.894,3.765 53.665,6.934C54.895,10.772 51.073,6.619 43.099,10.716C26.839,20.485 36.555,33.554 36.986,33.959C26.839,48.082 17.97,59.54 13.867,76.803C11.207,89.619 11.507,102.849 9.278,115.731C8.492,120.197 7.285,124.511 5.979,128.849C4.563,134.526 3.875,148.674 3.095,148.8C1.674,149.154 3.916,152.073 5.422,152.075C47.174,159.003 89.583,152.362 131.559,151.277C143.388,150.866 155.231,150.771 167.059,151.26Z" style="fill:white;"/>
                                                    <path id="ðŸ–-Ink" d="M103.779,35.206C103.798,35.015 104.056,35.015 104.076,35.206L104.371,38.053C104.729,41.529 105.075,44.999 105.325,48.492C105.637,52.848 105.846,57.203 105.946,61.568C106.297,76.772 106.367,91.984 106.396,107.192C108.452,107.049 110.508,106.912 112.565,106.779C113.961,106.689 115.357,106.603 116.752,106.517L120.312,106.302L121.777,106.212C122.767,106.15 123.892,105.901 124.585,106.778C124.862,107.13 125.001,107.586 124.742,108.003C124.146,108.965 123.231,108.931 122.196,108.973C121.219,109.013 120.242,109.051 119.265,109.089C117.171,109.17 115.078,109.247 112.984,109.306C110.787,109.367 108.59,109.418 106.393,109.455C106.371,115.875 106.105,122.287 105.818,128.7L105.688,131.586C105.337,139.39 104.959,147.201 104.422,154.995C104.378,155.633 103.476,155.632 103.432,154.995C102.827,146.218 102.429,137.422 102.033,128.633C101.746,122.261 101.579,115.887 101.5,109.512C101.209,109.514 100.919,109.518 100.629,109.519C92.384,109.555 84.141,109.591 75.895,109.513C75.909,109.53 75.923,109.546 75.932,109.567C76.528,110.976 76.585,112.775 76.571,114.287C76.554,116.021 76.321,117.734 75.921,119.421C74.491,125.463 70.801,130.875 66.598,135.349L66.461,135.495C65.47,136.542 64.332,137.595 63.724,138.93C63.102,140.293 62.886,141.887 62.579,143.351L62.544,143.519L61.344,149.062C60.963,150.823 60.855,153.39 59.462,154.661C58.162,155.846 56.44,155.227 55.828,153.701C55.351,152.51 55.827,151.202 56.109,150.012L58.326,140.691C58.69,139.171 59.088,137.641 59.874,136.276C60.679,134.877 61.859,133.863 63.064,132.826C65.345,130.862 67.438,128.613 69.209,126.178C70.979,123.744 72.492,121.061 73.552,118.24C74.083,116.828 74.519,115.361 74.819,113.882C75.104,112.478 75.102,111.025 75.407,109.636C75.428,109.54 75.509,109.474 75.602,109.445C75.58,109.383 75.613,109.3 75.7,109.294L82.443,108.861C88.437,108.474 94.431,108.077 100.419,107.624L101.478,107.547C101.395,99.041 101.465,90.534 101.619,82.025C101.759,74.222 101.762,66.417 101.994,58.615C102.11,54.743 102.358,50.88 102.635,47.016C102.918,43.064 103.371,39.146 103.779,35.206ZM40.464,80.449C40.392,80.015 40.937,79.747 41.188,80.143C44.059,84.671 45.444,89.589 46.027,94.887C46.543,99.563 46.391,104.307 46.134,108.995C45.86,113.996 45.541,118.995 45.218,123.993L44.721,131.657L43.476,150.871C43.387,152.245 43.075,153.495 41.892,154.134C41.742,154.259 41.586,154.371 41.404,154.468C40.765,154.81 39.918,154.637 39.548,153.981L39.696,154.079C39.825,154.16 39.68,154.046 39.261,153.739L38.906,153.278C38.647,152.89 38.482,152.508 38.416,152.046C38.313,151.329 38.447,150.541 38.493,149.82L39.31,137.221C39.945,127.427 40.686,117.635 41.245,107.835C41.505,103.268 41.687,98.696 41.564,94.121C41.441,89.571 41.209,84.944 40.464,80.449ZM65.303,-3.892L65.462,-3.919C71.166,-4.866 77.367,-4.689 82.579,-1.939C82.622,-1.916 82.603,-1.844 82.554,-1.847L80.877,-1.914C75.566,-2.122 70.271,-2.245 65.049,-0.996L64.514,-0.868C62.634,-0.409 60.67,0.153 59.159,1.396C57.715,2.583 56.996,4.416 56.305,6.102L56.213,6.325C55.511,7.991 54.624,9.571 53.086,10.613C51.095,11.962 48.7,11.796 46.417,11.98C42.397,12.303 39.111,15.217 37.475,18.784C36.485,20.943 36.063,23.365 35.979,25.726C35.936,26.929 35.93,28.178 36.09,29.372C36.141,29.754 36.613,31.145 36.854,31.112C37.389,31.038 37.878,31.317 38.044,31.744C39.365,30.468 40.724,29.228 42.127,28.033C45.623,25.054 49.389,22.355 53.355,20.035C56.381,18.264 59.574,16.51 62.88,15.184C62.618,15.178 62.36,15.23 62.11,15.36C62.001,15.418 61.892,15.28 61.978,15.189C63.02,14.093 64.267,13.937 65.524,14.23C65.793,14.144 66.061,14.062 66.331,13.983C66.465,13.944 66.532,14.129 66.422,14.2L66.113,14.398C67.485,14.858 68.832,15.761 69.898,16.474C72.961,18.522 75.657,21.025 78.39,23.482L78.887,23.927C81.293,26.076 83.759,28.164 86.493,29.888C87.923,30.79 89.426,31.625 91.002,32.246C92.354,32.778 94.555,33.114 95.189,34.543C95.751,35.227 95.516,36.1 94.857,36.56C93.745,37.784 91.522,36.994 90.197,36.484C88.6,35.869 87.053,35.13 85.577,34.264C82.713,32.582 80.072,30.49 77.611,28.265C75.041,25.941 72.618,23.472 70.118,21.075C69.035,20.037 67.978,18.974 66.893,17.937L66.348,17.421C65.795,16.901 65.006,16.092 64.163,15.602C62.574,16.55 60.961,17.459 59.387,18.431C57.19,19.788 55.057,21.243 52.957,22.747C48.915,25.64 45.084,28.881 41.528,32.355C35.006,38.725 29.449,46 24.595,53.703L24.226,54.29C21.467,58.699 18.859,63.25 17.009,68.122C14.974,73.483 13.984,79.12 13.447,84.81C12.913,90.46 12.733,96.139 12.137,101.783C11.525,107.572 10.32,113.233 8.949,118.884L8.622,120.224C7.382,125.284 6.102,130.345 5.464,135.525C5.124,138.292 4.919,141.097 4.966,143.886C5.012,146.692 5.453,149.436 5.808,152.212C5.945,153.275 4.898,154.163 3.962,154.304C2.886,154.466 1.961,153.778 1.626,152.778C0.583,149.659 0.393,146.211 0.426,142.938C0.459,139.614 0.883,136.313 1.48,133.046C2.653,126.622 4.464,120.33 5.979,113.982C7.314,108.387 8.21,102.783 8.692,97.051C9.194,91.105 9.494,85.138 10.409,79.235C11.311,73.406 13.01,67.839 15.572,62.525C17.904,57.686 20.811,53.132 23.86,48.718C27.561,43.357 31.627,38.256 36.171,33.609C35.763,33.591 35.344,33.459 34.959,33.219C33.781,32.484 33.233,31.047 33.064,29.734C32.669,26.664 32.765,23.458 33.554,20.457C34.827,15.614 38.132,11.311 42.921,9.566C44.154,9.117 45.465,8.953 46.771,8.92C48.011,8.889 49.365,9.051 50.561,8.658C52.465,8.032 53.281,5.789 53.996,4.088L54.029,4.01C54.946,1.843 56.046,-0.014 58.031,-1.367C60.15,-2.811 62.804,-3.468 65.303,-3.892ZM119.493,4.678C121.207,4.083 123.349,4.623 125.025,5.142C126.892,5.722 128.618,6.788 130.097,8.055C131.658,9.39 132.948,11.04 133.859,12.882L133.946,13.06C134.778,14.769 135.726,17.115 135.306,18.993C135.294,19.046 135.281,19.098 135.265,19.147C138.665,20.822 141.806,22.919 144.54,25.578C147.724,28.673 150.421,32.195 152.702,36C161.764,51.113 163.359,69.264 164.43,86.5L164.697,90.87C165.278,100.306 165.958,109.72 167.724,119.027L167.853,119.699C169.742,129.442 172.445,139.261 172.171,149.256C172.089,152.251 167.665,152.231 167.536,149.256C167.054,138.06 164.442,127.251 162.673,116.23C159.562,96.84 161.121,76.851 156.712,57.655C154.981,50.122 152.301,42.815 148.473,36.091C146.583,32.77 144.42,29.56 141.886,26.694C139.706,24.228 137.44,21.855 134.892,19.782C134.078,20.598 132.451,20.182 132.026,18.993C131.734,18.176 131.819,17.22 131.632,16.364C131.458,15.57 131.218,14.782 130.899,14.034C130.262,12.543 129.327,11.111 128.249,9.904C127.083,8.6 125.743,7.516 124.244,6.621C122.735,5.72 121.084,5.451 119.493,4.792C119.439,4.77 119.434,4.698 119.493,4.678ZM126.151,108.302C126.154,108.223 126.246,108.186 126.303,108.239C126.904,108.792 127.267,109.586 127.71,110.266C128.22,111.051 128.755,111.819 129.317,112.568C130.442,114.067 131.695,115.481 132.957,116.866C134.131,118.154 135.383,119.387 136.681,120.55C138.088,121.811 139.664,122.935 140.942,124.33C143.609,127.242 144.039,131.238 144.602,134.99L144.664,135.396C145.007,137.623 145.314,139.855 145.591,142.091C145.726,143.179 145.86,144.267 145.97,145.358L146.004,145.703C146.102,146.771 146.128,147.854 145.515,148.786C144.859,149.784 143.368,150.134 142.481,149.177C140.958,147.533 141.244,144.614 141.045,142.499C140.882,140.751 140.696,139.004 140.488,137.261L140.382,136.389C140.137,134.405 139.938,132.382 139.485,130.433C139.085,128.716 138.323,127.42 137.072,126.177C135.813,124.924 134.504,123.755 133.341,122.406C132.108,120.975 130.996,119.441 129.994,117.84C129.136,116.47 128.449,114.98 127.82,113.491L127.715,113.243C127.107,111.791 126.104,109.901 126.151,108.302ZM148.147,45.944C148.16,45.742 148.459,45.739 148.464,45.944C148.501,47.686 148.538,49.427 148.574,51.169C148.865,65.203 148.685,79.27 150.093,93.256C150.757,99.851 151.979,106.348 153.393,112.818C154.117,116.129 154.877,119.432 155.598,122.743C156.301,125.97 157.055,129.213 157.613,132.47C158.161,135.671 158.652,138.897 158.872,142.14L158.899,142.563C158.994,144.133 159.447,146.443 158.582,147.835C157.646,149.343 155.852,149.371 154.848,147.931C153.906,146.579 154.14,144.175 153.974,142.563C153.805,140.92 153.626,139.276 153.422,137.637C153.026,134.439 152.503,131.25 151.96,128.074C150.828,121.462 149.187,114.932 147.975,108.33C146.733,101.565 145.851,94.751 145.813,87.863C145.776,80.917 146.511,73.984 146.882,67.053C147.259,60.013 147.688,52.979 148.147,45.944ZM81.876,2.293C82.253,1.024 83.582,0.231 84.879,0.588C86.067,0.914 87.048,2.357 86.584,3.592C86.077,4.939 85.191,6.088 84.444,7.312C83.754,8.443 82.747,9.334 82.044,10.445L82.819,11.281C83.206,11.697 83.595,12.112 83.988,12.519L85.339,13.919C86.391,15.007 87.45,16.089 88.538,17.139C91.74,20.228 94.991,23.215 98.576,25.861C99.393,26.463 100.215,27.061 101.061,27.622L101.376,27.831C101.956,28.211 102.603,28.584 103.304,28.52C105.007,28.363 106.545,26.554 107.715,25.428L107.776,25.37C110.676,22.61 113.361,19.592 115.708,16.347C116.23,15.626 116.734,14.893 117.226,14.151C116.091,12.825 116.362,10.236 116.299,8.628C116.255,7.497 116.252,6.366 116.246,5.234L116.243,5.006C116.229,4.273 116.196,3.571 116.671,2.968C116.699,2.933 116.756,2.934 116.791,2.953C117.442,3.294 117.643,3.865 117.92,4.506L117.949,4.572C118.287,5.342 118.611,6.118 118.938,6.891C119.281,7.701 119.596,8.523 119.914,9.343C120.063,9.724 120.204,10.107 120.343,10.491C120.427,10.737 120.514,10.982 120.604,11.226L120.625,11.245C120.743,11.345 120.843,11.451 120.93,11.561C121.293,11.742 121.582,12.074 121.717,12.56C122.012,13.619 121.402,14.483 120.858,15.323C118.648,18.739 116.129,21.993 113.329,24.946C111.938,26.413 110.475,27.813 108.951,29.142L108.685,29.373C107.317,30.549 105.831,31.663 104.004,31.939C101.865,32.261 100.125,31.197 98.488,29.971L98.324,29.848C96.772,28.673 95.252,27.456 93.778,26.184C90.774,23.589 87.916,20.803 85.38,17.747C82.913,14.774 80.474,11.45 78.953,7.873C78.861,7.655 79.105,7.427 79.296,7.609C80.038,8.316 80.753,9.062 81.459,9.817C81.479,8.706 81.274,7.584 81.388,6.465C81.527,5.105 81.487,3.603 81.876,2.293Z"/>
                                                </g>
                                                <g id="head-Short-3" serif:id="head/Short-3" transform="matrix(1,0,0,1,78.5915,38.0431)">
                                                    <path id="ðŸŽ¨-Background1" serif:id="ðŸŽ¨-Background" d="M88.399,71.353C87.075,61.79 84.044,52.506 83.609,42.801C83.351,38.647 83.092,34.494 82.833,30.34C82.735,27.746 79.367,26.871 78.08,29.169C75.155,25.925 69.918,26.402 65.923,26.501C42.403,27.335 20.052,43.243 11.978,65.424C11.784,65.953 11.843,66.516 12.063,67.019C8.299,79.573 21.608,87.657 30.685,93.255C34.367,97.147 38.695,100.382 43.583,102.596C49.205,105.242 55.463,106.718 61.674,106.859C63.038,106.89 63.857,105.787 63.955,104.646C65.937,104.184 69.328,104.717 70.376,102.685C82.327,97.493 90.113,84.332 88.399,71.353Z" style="fill:white;"/>
                                                    <path id="ðŸ–-Ink1" serif:id="ðŸ–-Ink" d="M82.808,37.442C82.774,37.132 83.221,37.122 83.313,37.373C84.071,39.437 84.856,41.488 85.456,43.604C86.035,45.644 86.451,47.73 86.873,49.807C87.573,53.254 88.175,56.727 88.672,60.21C89.736,59.379 91.127,59.304 92.437,59.95C93.052,60.254 93.287,61.056 93.14,61.678C93.022,62.177 92.877,62.674 92.703,63.16C93.074,63.489 93.39,63.894 93.619,64.36C94.222,65.585 94.028,66.872 93.487,68.042C93.528,68.111 93.569,68.181 93.607,68.256C94.39,69.777 93.971,71.14 93.399,72.625C92.971,73.735 93.21,74.986 92.285,75.825C91.964,76.857 91.482,77.818 90.78,78.685C90.621,78.977 90.382,79.212 90.099,79.385C90.028,81.014 89.856,82.638 89.532,84.249C88.276,90.5 84.29,96.07 79.355,99.999C74.527,103.843 68.856,106.14 62.736,106.883C59.765,107.244 56.789,107.13 53.843,106.615L53.475,106.55C50.756,106.056 47.465,105.239 45.585,103.187C44.596,102.108 45.174,99.733 46.923,99.957C47.849,100.076 48.655,100.224 49.527,100.566C50.207,100.833 50.889,101.09 51.587,101.308C52.924,101.724 54.307,102.049 55.696,102.229C58.589,102.603 61.595,102.504 64.455,101.939C69.655,100.913 74.707,98.546 78.653,94.982C83.241,90.838 85.93,85.476 86.325,79.292C86.766,72.404 85.971,65.351 85.311,58.498C84.968,54.934 84.532,51.377 84.007,47.835C83.494,44.374 83.187,40.917 82.808,37.442ZM42.211,15.2L42.433,15.166C51.264,13.822 60.556,13.917 68.857,17.563C70.447,18.262 72.004,19.105 73.471,20.084C74.521,19.974 75.577,19.885 76.615,19.871C77.92,19.854 79.194,20.532 79.354,21.853C80.578,22.005 81.704,22.455 82.424,23.356C82.705,23.707 82.893,24.112 82.988,24.535C83.74,24.713 84.478,24.985 85.177,25.345C86.026,25.782 86.516,26.999 86.216,27.9C86.147,28.104 86.068,28.304 85.98,28.498L85.912,28.644L85.952,28.699C86.631,29.789 86.159,31.22 85.12,31.871C84.34,32.359 83.47,32.748 82.574,32.936C82.648,33.296 82.716,33.657 82.771,34.023C82.792,34.171 82.602,34.276 82.517,34.13C82.731,34.797 83,35.497 83.322,36.231C83.512,36.664 82.904,37.049 82.672,36.612C82.055,35.445 81.672,34.249 81.112,33.046C80.595,33.012 80.079,32.894 79.583,32.668C79.257,32.52 79.01,32.27 78.833,31.972C78.822,31.985 78.816,32 78.805,32.015C77.138,34.16 73.881,34.912 71.362,35.591C68.658,36.32 65.89,36.77 63.112,37.102C58.262,37.679 53.373,37.787 48.499,38.011C48.176,38.026 47.854,38.042 47.532,38.057C45.552,39.795 43.002,40.874 40.387,41.203C39.062,41.369 37.494,41.326 36.008,40.988C35.47,41.537 34.79,41.944 34.048,42.153C33.915,44.922 32.372,47.543 30.039,49.071L30.08,49.235C30.66,51.6 30.652,54.184 28.574,55.827C28.293,56.049 27.985,56.24 27.662,56.398L27.733,56.561C28.807,59.071 29.149,61.843 27.132,63.925C26.314,64.769 24.877,64.569 24.264,63.601L24.234,63.552C24.2,63.494 24.163,63.439 24.128,63.382C24.073,63.494 23.989,63.588 23.865,63.641C23.098,63.971 22.792,63.728 22.093,63.388C21.446,63.071 20.764,62.834 20.067,62.65C19.498,62.502 18.932,62.396 18.362,62.335C14.757,63.713 12.429,67.94 12.983,71.907C13.283,74.067 14.468,76.206 16.534,77.102C17.438,77.495 18.501,77.66 19.479,77.527C20.804,77.347 21.822,76.513 23.193,76.99C23.734,77.178 24.072,77.603 24.102,78.184C24.15,79.097 23.827,79.782 23.282,80.289C24.243,81.092 25.019,82.208 25.853,83.098C26.897,84.212 27.955,85.326 29.083,86.353C30.148,87.327 31.281,88.232 32.481,89.035L32.607,89.118C34.11,90.097 36.004,90.967 36.076,93.015C36.1,93.632 35.726,94.198 35.219,94.513C33.324,95.688 31.262,94.145 29.776,93.015C29.178,92.56 28.597,92.089 28.038,91.601C27.664,91.63 27.256,91.569 26.831,91.381C26.559,91.263 26.293,91.123 26.031,90.975C25.179,91.189 24.376,91.001 23.715,90.555C22.762,90.789 21.752,90.817 20.895,90.629C20.111,90.455 19.412,90.085 18.835,89.589C17.631,89.973 16.293,89.901 15.106,89.172C14.394,88.735 13.838,88.111 13.536,87.382C13.382,87.141 13.284,86.86 13.277,86.551L13.276,86.433C12.241,86.456 11.204,86.101 10.403,85.282C9.668,84.529 9.309,83.591 9.269,82.637C8.227,82.342 7.274,81.735 6.55,80.799C5.35,79.247 5.189,77.33 5.806,75.618C5.766,75.528 5.73,75.435 5.698,75.342C4.741,73.991 4.109,72.362 4.16,70.728C4.166,70.474 4.2,70.225 4.251,69.978C3.309,69.477 2.616,68.597 2.542,67.479C2.485,66.602 2.8,65.744 3.368,65.095C3.091,64.434 2.969,63.715 3.053,62.997C3.14,62.259 3.4,61.619 3.78,61.084C3.771,60.89 3.782,60.693 3.814,60.492C3.776,60.296 3.744,60.093 3.727,59.886C3.547,57.62 5.111,55.637 7.014,54.591C7.515,54.316 8.056,54.092 8.597,53.902C8.99,53.763 9.581,53.716 9.928,53.46C9.913,53.45 10.057,53.264 10.082,53.165C10.109,53.042 10.139,52.922 10.154,52.797C10.211,52.273 10.169,51.734 10.158,51.207C10.112,48.819 10.185,46.42 10.437,44.045C10.904,39.64 12.055,35.331 14.299,31.482C16.181,28.257 18.759,25.533 21.714,23.273C27.601,18.775 34.948,16.329 42.211,15.2ZM14.928,69.975C14.162,68.133 17.77,68.115 18.724,68.202L18.752,68.205C20.899,68.419 24.256,69.452 25.134,71.619C25.498,72.516 24.421,73.489 23.56,73.194C22.717,72.905 22.244,72.285 21.567,71.742C21.39,71.6 21.205,71.467 21.016,71.339C21.116,71.655 21.274,71.947 21.495,72.165L21.547,72.214C22.586,73.148 20.728,74.615 20.038,73.379C19.671,72.721 19.524,71.999 19.638,71.252C19.672,71.031 19.732,70.83 19.818,70.637C19.749,70.603 19.682,70.566 19.612,70.533L19.489,70.475C18.662,70.1 15.133,68.626 15.162,69.944C15.165,70.09 14.976,70.09 14.928,69.975Z"/>
                                                </g>
                                                <g id="face-Smiling" serif:id="face/Smiling" transform="matrix(1,0,0,1,112.183,77.3542)">
                                                    <path id="ðŸ–-Ink2" serif:id="ðŸ–-Ink" d="M30.969,50.92C29.549,50.34 28.282,49.373 27.355,48.138C27.033,47.709 26.95,47.256 27.017,46.841C27.093,46.375 27.369,45.952 27.745,45.669C28.122,45.384 28.594,45.244 29.05,45.316C29.447,45.378 29.841,45.595 30.154,46.045L30.219,46.135C30.77,46.881 31.487,47.492 32.305,47.886C33.093,48.266 33.975,48.444 34.887,48.341C36.624,48.144 37.822,47.204 39.095,45.928C39.253,45.767 39.41,45.6 39.569,45.432C39.669,45.278 39.808,45.18 39.963,45.128C40.134,45.071 40.328,45.074 40.506,45.136C40.677,45.196 40.83,45.309 40.933,45.46C41.03,45.604 41.085,45.781 41.068,45.984C40.951,47.307 40.26,48.488 39.278,49.415C38.187,50.444 36.741,51.157 35.38,51.407C33.881,51.682 32.353,51.485 30.969,50.92ZM36.088,30.512C37.683,31.482 40.114,33.744 38.397,36.149C36.377,38.27 33.469,35.838 32.035,34.739C30.706,33.887 29.213,36.078 30.446,37.074C40.803,44.745 45.006,30.766 36.894,29.371C36.001,29.218 35.67,30.212 36.088,30.512ZM17.527,21.589C17.704,19.4 21.036,18.903 21.367,21.069C21.664,23.009 21.315,24.791 20.441,26.538C19.607,28.207 17.509,27.428 17.35,25.909C17.137,23.872 17.418,22.95 17.527,21.589ZM42.893,20.62C43.358,20.011 44.028,19.595 44.832,19.83C47.343,20.564 46.603,24.13 45.721,25.866C45.242,26.809 43.693,27.048 42.993,26.218C41.852,24.864 41.306,22.161 42.756,20.828C42.796,20.759 42.839,20.69 42.893,20.62ZM20.406,12.011L20.803,11.942C22.03,11.729 23.555,11.525 24.423,12.512C24.884,13.036 25.042,14.008 24.423,14.509C23.335,15.39 22.131,15.049 20.827,15.123C19.752,15.185 18.719,15.363 17.684,15.659C15.412,16.309 13.561,17.494 11.621,18.796C11.366,18.967 11.107,18.641 11.228,18.403C12.348,16.209 14.518,14.406 16.692,13.307C17.853,12.721 19.122,12.234 20.406,12.011ZM40.604,11.028L40.908,11.09C44.211,11.781 48.504,13.161 50.068,16.407C50.128,16.866 50.065,16.965 50.013,17.029L49.996,17.05C49.954,17.105 49.92,17.181 49.722,17.243C49.666,17.23 49.611,17.216 49.554,17.202C48.837,17.014 48.27,16.755 47.721,16.486L47.125,16.192C46.434,15.853 45.737,15.527 44.998,15.286C43.422,14.771 41.8,14.409 40.153,14.215C39.797,14.173 39.453,14.053 39.182,13.846C38.924,13.65 38.728,13.379 38.638,13.018C38.522,12.551 38.555,12.198 38.806,11.777C38.994,11.46 39.263,11.241 39.573,11.115C39.888,10.987 40.247,10.957 40.604,11.028Z"/>
                                                </g>
                                                <g id="facial-hair-Chin" serif:id="facial-hair/Chin" transform="matrix(1,0,0,1,104.577,109.479)">
                                                    <path id="ðŸ–-Ink3" serif:id="ðŸ–-Ink" d="M44.273,29.18C38.021,30.099 33.496,29.909 30.697,28.61C26.512,26.668 22.441,24.789 18.644,22.216C14.755,19.58 11.455,16.45 9.099,12.443C6.908,8.715 5.087,4.76 3.254,0.835C3.146,0.605 2.094,-1.675 1.722,-2.44C1.149,-3.626 -0.525,-3.253 -0.525,-1.413C-0.525,0.428 -0.606,14.367 2.609,19.85C5.51,24.802 10.426,28.262 15.311,31.282C20.715,34.622 27.894,38.232 34.342,39.186C40.177,40.048 46.836,37.626 51.061,33.634C55.479,29.458 56.73,23.786 59.009,18.353C59.518,17.139 57.713,16.407 57.184,17.601C56.519,19.1 52.216,22.96 44.273,29.18Z"/>
                                                </g>
                                                <g id="accessories-Glasses-5" serif:id="accessories/Glasses-5" transform="matrix(1,0,0,1,88.5211,88.9785)">
                                                    <path id="ðŸ–-Ink4" serif:id="ðŸ–-Ink" d="M77.554,15.731C76.957,17.358 76.047,19.051 74.935,20.42C70.437,24.231 66.065,22.121 63.846,16.956C63.002,13.306 65.242,9.374 67.614,6.688C71.041,3.253 76.634,5.056 78.209,9.14C78.305,9.67 78.363,10.198 78.391,10.724C78.358,12.434 78.152,13.895 77.554,15.52M34.312,12.451C40.238,5.399 51.326,5.022 51.043,15.876C49.77,29.614 28.332,26.242 34.312,12.451ZM79.418,6.568C79.21,6.216 78.98,5.876 78.728,5.55C78.635,5.495 78.582,5.003 78.24,4.967C73.671,-0.076 65.644,2.785 62.744,7.81C62.214,8.445 61.782,9.189 61.464,9.975C58.606,9.451 55.275,9.552 52.617,10.632C49.982,3.748 42.003,3.134 36.745,6.075C33.475,7.684 31.355,11.053 28.174,12.904C20.698,13.443 12.673,11.767 5.332,13.643C-0.458,14.847 4.382,17.78 5.353,15.823C12.275,13.777 20.475,15.506 27.662,15.045C28.409,16.31 29.842,17.344 31.27,17.3C32.813,30.979 52.753,28.711 53.441,16.551C54.221,15.317 55.191,14.136 56.58,13.367C57.112,13.257 57.626,13.114 58.095,12.892C58.898,12.779 60.134,13.119 60.872,13.788C63.401,28.966 77.969,27.198 80.572,13.901C80.624,13.849 80.769,13.65 80.88,13.332C81.771,12.154 83.952,11.715 83.604,9.726C83.293,7.735 80.781,7.759 79.418,6.568Z"/>
                                                </g>
                                            </g>
                                        </g>
                                    </g>
                                </g>
                            </g>
                        </g>
                    </g>
                    <g transform="matrix(-2.66584,0,0,2.66584,1491.75,216.268)">
                        <g id="_5e535637d87131637b0e4379_peep-39.svg" serif:id="5e535637d87131637b0e4379_peep-39.svg">
                            <g>
                                <g id="Introduction1" serif:id="Introduction">
                                    <g id="variations1" serif:id="variations">
                                        <g id="images1" serif:id="images">
                                            <g id="a-person-bust1" serif:id="a-person/bust">
                                                <g id="body-Paper" serif:id="body/Paper" transform="matrix(1,0,0,1,31.0563,135.053)">
                                                    <path id="ðŸŽ¨-Background2" serif:id="ðŸŽ¨-Background" d="M150.023,41.544C148.181,34.401 146.488,31.372 143.216,28.889C140.157,26.567 135.69,24.616 129.173,23.191C122.385,22.004 122.193,18.476 120.491,12.804C119.994,11.099 117.534,10.646 116.472,11.874C116.322,11.713 116.166,11.565 116.004,11.431C116.149,10.618 114.965,8.287 115.005,7.51C115.418,-0.609 112.763,-4.686 106.136,-6.201C104.695,-6.531 94.907,-6.725 93.501,-6.337C87.359,-4.638 81.312,0.755 82.237,7.253C80.309,9.773 78.422,11.311 75.447,12.123C68.826,12.964 62.207,13.712 55.585,14.352C42.622,16.385 30.468,23.248 22.162,33.256C21.396,34.18 21.174,35.434 21.85,36.42C21.321,38.689 18.339,44.193 20.685,45.749C16.827,54.977 7.951,72.816 7.933,77.912C7.864,99.321 10.176,127.187 31.298,139.035C32.144,139.866 32.265,140.786 32.631,142.024C33.56,145.921 36.932,148.707 40.623,148.479C58.807,148.883 76.419,146.665 94.604,146.557C102.623,146.51 112.267,147.707 119.233,148.505C126.199,149.302 133.232,148.597 139.917,146.557C140.48,147.445 141.62,147.962 142.776,147.707C149.707,146.33 155.311,142.058 160.192,137.389C161.684,134.675 167.509,126.942 165.194,124.251C167.293,115.376 167.184,105.839 163.454,97.388C163.983,95.839 163.019,94.136 163.454,92.537C163.769,91.379 164.575,90.9 164.981,89.754C165.552,88.141 164.931,85.977 164.288,84.33C164.024,83.51 164.773,82.627 164.981,81.79C165.967,77.841 163.708,78.189 162.08,75.549C162.104,75.541 162.528,73.657 162.526,73.666C162.775,72.321 162.15,70.597 161.606,69.474C161.237,68.715 160.448,68.24 159.665,68.327C160.454,65.647 161.452,63.417 162.526,60.835C164.424,56.283 166.827,51.924 169.553,47.805C170.67,46.118 169.17,44.163 167.364,44.048C161.516,43.677 155.733,42.835 150.023,41.544Z" style="fill:white;"/>
                                                    <path id="ðŸ–-Ink5" serif:id="ðŸ–-Ink" d="M132.957,75.965C130.618,75.047 128.1,74.54 125.569,74.344C126.932,74.105 128.298,73.874 129.676,73.756C130.637,73.674 131.529,73.682 132.251,74.412C132.733,74.897 132.959,75.523 133.276,76.098C133.172,76.051 133.065,76.007 132.957,75.965ZM158.06,67.388C154.229,67.583 150.395,68.494 146.93,70.144C145.513,70.82 144.228,71.797 143.852,73.403C143.662,74.223 143.708,75.071 143.81,75.899C143.886,76.527 143.905,77.328 144.45,77.753C144.543,77.825 144.642,77.88 144.746,77.92C143.468,78.497 142.25,79.19 141.169,79.904C140.18,80.557 139.164,81.563 138.708,82.698C138.67,82.569 138.632,82.449 138.594,82.335C137.816,80.036 136.618,78.152 134.732,76.886C135.065,76.736 135.296,76.381 135.188,75.891C134.74,73.843 132.849,72.063 130.713,72.19C128.375,72.327 125.863,73.179 123.748,74.255C122.977,74.238 122.207,74.249 121.447,74.282C121.316,74.287 121.322,74.464 121.447,74.479C122.064,74.557 122.681,74.644 123.298,74.745C124.764,74.98 126.226,75.278 127.656,75.648C129.372,76.092 131.146,76.537 132.75,77.313C135.86,78.82 137.784,82.76 137.389,86.188C137.324,86.75 137.106,88.449 136.326,88.274C135.668,88.126 135.406,86.75 135.175,86.241C134.558,84.888 133.447,84.004 132.114,83.406C130.549,82.703 128.873,82.227 127.25,81.674C126.332,81.359 125.413,81.043 124.491,80.731C123.549,80.408 122.653,79.961 121.65,80.188C121.044,80.325 120.974,81.048 121.314,81.462C121.832,82.094 122.601,82.28 123.346,82.54C124.331,82.882 125.313,83.225 126.296,83.567C127.814,84.095 129.406,84.541 130.886,85.188L130.84,85.294C130.719,85.26 130.578,85.38 130.601,85.528C130.823,86.896 131.132,88.477 130.789,89.846C130.519,90.933 129.566,92.135 128.328,91.816C128.522,91.638 128.594,91.332 128.463,91.049C127.973,90.001 121.551,85.862 120.978,87.399C120.959,87.454 121.018,87.494 121.065,87.486C121.553,87.384 122.37,88.217 122.761,88.481C123.325,88.862 123.898,89.233 124.456,89.624C125.066,90.051 125.662,90.499 126.243,90.962C126.699,91.326 127.044,91.704 127.567,91.888C127.293,92.019 127.075,92.262 126.982,92.573C126.746,93.382 126.289,94.069 125.497,94.426C124.667,94.798 123.731,94.564 122.856,94.655C121.665,94.775 120.625,95.342 119.757,96.151C117.934,97.854 117.019,100.856 114.469,101.661C112.946,102.141 111.256,101.838 109.713,101.621C107.991,101.377 106.314,101.185 104.579,101.439C102.919,101.682 101.349,102.257 99.832,102.958C98.41,103.616 96.839,104.36 95.577,105.34C95.318,104.539 95.056,103.747 94.857,102.929C94.388,100.995 94.134,99.025 94.073,97.038C94.016,95.147 94.122,93.247 94.284,91.364C94.365,90.423 94.491,89.487 94.572,88.546C94.593,88.31 94.635,88.056 94.667,87.803C96.919,86.473 99.285,85.455 101.67,84.406C101.677,84.404 101.683,84.4 101.689,84.398C101.763,84.364 101.835,84.332 101.909,84.301C101.907,84.296 101.905,84.292 101.901,84.288C102.173,84.121 102.363,83.899 102.477,83.649C105.915,81.369 108.788,78.256 110.93,74.625C111.828,73.103 112.692,71.524 113.867,70.191C115.118,68.768 116.603,67.923 118.441,67.483C120.589,66.968 122.803,66.659 125.005,66.484C126.207,66.389 127.55,66.241 128.86,66.247C129.773,66.253 130.667,66.331 131.487,66.558C132.701,66.891 133.411,67.815 134.174,68.749C134.903,69.646 135.627,70.544 136.308,71.478C136.952,72.363 137.56,73.278 138.089,74.238C138.406,74.813 138.699,75.405 138.946,76.015C139.033,76.231 139.147,76.476 139.2,76.7C139.253,76.926 139.156,77.165 139.409,77.165C138.363,77.18 138.374,78.852 139.413,78.79C143.482,78.554 137.653,70.607 136.802,69.5C135.595,67.931 134.351,65.885 132.42,65.156C132.393,65.146 132.363,65.135 132.336,65.127C132.898,64.594 133.341,63.956 133.766,63.307C134.203,62.639 134.725,61.874 134.869,61.081C134.96,60.577 134.332,60.289 134.034,60.731C133.601,61.375 133.392,62.191 133.069,62.899C132.739,63.618 132.338,64.296 132.021,65.021C131.258,64.786 130.434,64.679 129.596,64.643C130.654,63.21 132.462,60.445 132.68,60.09C133.682,58.446 134.634,56.751 135.545,55.054C136.529,53.215 137.372,51.3 138.315,49.44C138.849,48.386 139.388,47.323 139.982,46.3C140.187,45.949 140.406,45.598 140.656,45.279C140.704,45.216 140.765,45.163 140.822,45.103C140.888,45.067 140.956,45.027 140.994,45.006C141.336,44.81 141.456,44.353 141.697,44.064C142.082,43.597 142.534,43.542 143.113,43.535C144.346,43.522 145.584,43.571 146.816,43.605C148.627,43.656 150.435,43.727 152.244,43.823C152.791,43.852 153.336,43.882 153.883,43.916C156.513,44.072 159.141,44.277 161.763,44.529C164.083,44.75 166.403,45.112 168.725,45.285C165.581,52.757 162.095,60.093 158.148,67.173C158.108,67.244 158.079,67.316 158.06,67.388ZM140.618,86.636C140.11,86.869 139.618,87.158 139.16,87.488C139.236,86.974 139.255,86.433 139.234,85.89C139.612,86.296 140.096,86.528 140.618,86.636ZM162.262,73.784C162.226,73.788 162.192,73.807 162.175,73.843C161.474,75.291 161.767,76.907 162.913,78.042C163.513,78.634 164.82,79.302 164.778,80.274C164.742,81.06 163.887,81.72 163.521,82.369C163.181,82.973 163.054,83.637 163.327,84.292C163.675,85.131 164.649,85.465 164.983,86.289C165.406,87.335 164.719,88.597 164.237,89.508C163.789,90.351 163.21,91.195 162.826,92.087C160.251,93.42 157.946,95.466 155.964,97.544C153.794,99.816 151.933,102.489 148.487,102.422C148.143,102.415 147.881,102.597 147.725,102.848C146.765,102.893 145.804,102.912 144.845,102.916C143.159,102.925 141.473,102.908 139.789,102.855C139.671,102.447 139.758,101.893 139.751,101.549C139.73,100.439 139.72,99.332 139.673,98.222C139.66,97.914 139.648,97.603 139.635,97.294C140.241,98.391 141.425,98.89 142.772,98.814C144.94,98.687 147.12,98.332 149.267,98.013C150.397,97.846 151.525,97.656 152.651,97.453C153.577,97.288 154.882,97.33 155.529,96.588C155.681,96.415 155.689,96.098 155.451,95.982C154.81,95.667 154.407,95.842 153.703,95.978C152.846,96.144 151.986,96.303 151.124,96.451C149.469,96.738 147.811,97.005 146.149,97.239C145.202,97.372 144.253,97.503 143.305,97.607C142.477,97.696 141.543,97.816 140.875,97.193C139.529,95.933 140.284,93.822 141.135,92.549C141.152,92.524 141.152,92.501 141.146,92.48C141.949,92.292 142.749,92.072 143.548,91.917C145.084,91.622 146.63,91.372 148.179,91.15C151.36,90.696 154.563,90.396 157.762,90.094C158.554,90.017 158.562,88.771 157.762,88.845C153.167,89.265 148.549,89.664 144.015,90.55C142.878,90.77 141.75,91.019 140.628,91.3C140.098,91.432 139.529,91.637 138.974,91.643C138.94,91.643 138.906,91.643 138.872,91.641C137.784,91.607 137.626,90.675 138.224,89.899C138.298,89.804 138.374,89.709 138.452,89.618C139.508,88.358 140.824,87.517 142.181,86.646C143.7,86.439 145.215,85.979 146.702,85.64C150.374,84.803 154.046,83.966 157.72,83.132C158.44,82.967 158.134,81.859 157.413,82.022C154.625,82.654 151.836,83.286 149.047,83.918L144.965,84.844C144.15,85.027 143.131,85.397 142.172,85.531C141.699,85.596 141.241,85.604 140.827,85.507C139.489,85.19 139.422,83.518 139.999,82.525C140.645,81.409 141.866,80.712 142.95,80.08C144.828,78.983 146.827,78.194 148.779,77.286C149.125,77.21 149.472,77.133 149.818,77.057C151.834,76.614 154.137,76.396 156.034,75.582C156.602,75.341 156.291,74.445 155.729,74.458C154.257,74.49 152.717,75.014 151.278,75.324C149.721,75.662 148.162,75.999 146.605,76.335C146.449,76.368 145.523,76.664 145.384,76.599C145.295,76.557 145.263,76.248 145.234,76.045C145.138,75.377 145.069,74.676 145.172,74.006C145.401,72.503 146.653,71.797 147.921,71.22C150.744,69.937 153.839,69.134 156.919,68.813C157.629,68.739 158.339,68.692 159.053,68.669C159.891,68.644 160.582,68.496 161.007,69.322C161.675,70.624 162.042,72.298 162.262,73.784ZM158.342,120.988C157.727,118.86 157.894,116.588 157.473,114.417C157.256,113.298 156.959,112.187 156.635,111.094C156.373,110.211 155.937,109.271 155.888,108.35C155.885,108.288 155.957,108.253 156.007,108.281C156.875,108.778 157.541,109.853 158.036,110.696C158.628,111.706 159.08,112.762 159.445,113.873C160.172,116.087 160.769,118.757 159.832,120.988C159.553,121.652 158.572,121.785 158.342,120.988ZM139.335,92.803C139.855,92.752 140.375,92.653 140.894,92.537C140.313,93.103 139.777,93.786 139.479,94.543C139.432,93.961 139.373,93.382 139.295,92.805C139.308,92.805 139.322,92.805 139.335,92.803ZM134.34,137.096C133.424,136.456 132.756,135.562 131.979,134.772C131.214,133.996 132.409,132.8 133.174,133.577C133.837,134.25 134.413,135.091 135.193,135.636C135.569,135.898 135.743,136.371 135.497,136.793C135.279,137.164 134.715,137.357 134.34,137.096ZM129.229,112.506C130.902,111.782 132.548,110.994 134.299,110.473C135.345,110.161 135.788,111.793 134.748,112.103C133.135,112.583 131.623,113.3 130.082,113.966C129.093,114.393 128.234,112.936 129.229,112.506ZM111.561,112C111.152,110.99 112.788,110.555 113.191,111.55C113.655,112.696 114.187,113.813 114.651,114.959C115.06,115.968 113.424,116.404 113.021,115.408C112.557,114.262 112.025,113.146 111.561,112ZM94.122,132.166C93.849,132.53 93.395,132.727 92.966,132.47C92.606,132.254 92.387,131.681 92.663,131.313C93.468,130.239 94.284,129.178 95.228,128.22C95.994,127.444 97.188,128.64 96.424,129.416C95.58,130.271 94.842,131.207 94.122,132.166ZM91.628,19.011C92.404,19.541 93.084,20.185 93.747,20.848C94.517,21.618 93.322,22.814 92.551,22.043C91.993,21.485 91.43,20.918 90.775,20.471C90.397,20.213 90.228,19.733 90.472,19.315C90.691,18.94 91.251,18.754 91.628,19.011ZM117,46.22C116.561,47.099 116.166,47.96 116.141,48.958C116.115,50.046 114.425,50.047 114.451,48.958C114.484,47.652 114.965,46.518 115.54,45.366C116.027,44.392 117.484,45.249 117,46.22ZM126.309,24.368C127.217,23.762 128.063,25.227 127.162,25.828C126.432,26.315 125.701,26.802 124.971,27.289C124.063,27.894 123.218,26.429 124.118,25.829C124.848,25.342 125.578,24.855 126.309,24.368ZM85.932,62.574C85.777,63.649 84.149,63.189 84.302,62.125C84.54,60.48 84.83,58.857 85.276,57.255C85.568,56.207 87.198,56.655 86.906,57.705C86.46,59.307 86.17,60.93 85.932,62.574ZM80.006,81.942C78.919,81.919 78.918,80.229 80.006,80.252C80.991,80.272 81.959,80.532 82.908,80.769C83.965,81.033 83.514,82.663 82.459,82.399C81.656,82.199 80.839,81.96 80.006,81.942ZM77.819,120.958C77.445,121.14 77.062,121.303 76.684,121.476C75.927,121.822 75.171,122.169 74.415,122.516C72.841,123.239 71.267,123.965 69.694,124.693C66.546,126.15 63.374,127.557 60.219,128.999C57.001,130.469 53.791,131.959 50.586,133.457C49.076,134.162 47.554,134.842 46.036,135.529C44.737,136.116 43.132,137.142 41.707,137.239C41.634,137.244 41.609,137.151 41.651,137.104C42.189,136.491 43.048,136.134 43.756,135.736C44.479,135.329 45.216,134.946 45.949,134.558C47.477,133.748 49.007,132.945 50.55,132.163C53.637,130.6 56.729,129.049 59.823,127.5C62.977,125.919 66.128,124.329 69.31,122.805C70.809,122.087 72.308,121.371 73.809,120.658C74.622,120.272 75.435,119.886 76.249,119.501C76.6,119.335 76.948,119.155 77.307,119.006C77.784,118.809 78.147,118.849 78.639,118.727C79.442,118.529 79.79,119.55 79.173,119.995C78.666,120.361 78.399,120.675 77.819,120.958ZM66.536,138.295C66.362,137.873 66.725,137.361 67.126,137.255C67.606,137.128 67.99,137.42 68.166,137.845C68.629,138.973 69.289,140.007 70.138,140.881C70.898,141.662 69.703,142.858 68.943,142.077C67.879,140.982 67.114,139.702 66.536,138.295ZM58.235,111.155C57.464,110.385 58.66,109.189 59.43,109.96L61.62,112.151C62.391,112.922 61.195,114.117 60.425,113.346L58.235,111.155ZM35.762,107.583C34.187,108.045 32.351,108.47 31.277,109.814C31.225,109.879 31.137,109.795 31.168,109.729C32.543,106.879 36.484,105.879 39.214,104.88C41.144,104.174 43.124,103.588 45.122,103.064C44.922,100.785 45.473,98.342 45.664,96.074C45.868,93.652 46.035,91.224 46.12,88.795C46.207,86.317 46.228,83.822 46.147,81.343C46.066,78.874 45.745,76.434 45.605,73.973C45.591,73.735 45.923,73.724 45.994,73.92C46.824,76.204 47.178,78.734 47.448,81.143C47.726,83.624 47.818,86.098 47.783,88.593C47.746,91.159 47.597,93.719 47.392,96.276C47.295,97.488 47.183,98.699 47.076,99.911C46.995,100.835 46.958,101.752 46.769,102.647C47.974,102.351 49.181,102.072 50.385,101.8C54.223,100.933 58.077,100.129 61.898,99.192C63.774,98.733 65.624,98.182 67.491,97.693C69.25,97.232 71.106,96.674 72.912,96.468C73.556,96.395 73.638,97.277 73.211,97.576C71.744,98.607 69.795,99.324 68.1,99.901C66.399,100.48 64.63,100.897 62.887,101.326C59.251,102.22 55.58,102.952 51.915,103.714C48.255,104.475 44.588,105.23 40.969,106.169C39.227,106.622 37.49,107.075 35.762,107.583ZM27.133,62.349C26.192,62.902 25.342,61.44 26.28,60.889C27.507,60.169 28.814,59.627 30.132,59.099C31.144,58.694 31.579,60.33 30.582,60.73C29.397,61.204 28.235,61.702 27.133,62.349ZM23.725,125.165C22.782,125.713 21.932,124.251 22.872,123.706C24.194,122.939 25.641,122.428 27.01,121.758C27.984,121.281 28.84,122.74 27.863,123.218C26.494,123.888 25.047,124.399 23.725,125.165ZM22.193,89.508C23.105,90.375 24.323,90.783 25.471,91.238C26.472,91.635 26.033,93.27 25.021,92.869C23.591,92.301 22.134,91.783 20.998,90.703C20.207,89.952 21.404,88.759 22.193,89.508ZM32.285,41.082C33.288,41.476 32.849,43.11 31.836,42.713C30.712,42.272 29.552,41.936 28.429,41.495C27.426,41.102 27.865,39.467 28.878,39.865C30.001,40.306 31.162,40.641 32.285,41.082ZM50.089,21.848C51.155,21.668 51.609,23.298 50.539,23.478C49.211,23.702 47.904,23.965 46.645,24.452C45.628,24.846 45.192,23.21 46.195,22.822C47.455,22.334 48.762,22.072 50.089,21.848ZM55.972,68.679C54.995,68.199 55.852,66.741 56.825,67.219C57.85,67.724 58.912,68.113 60.031,68.351C61.096,68.578 60.642,70.208 59.581,69.982C58.322,69.714 57.125,69.246 55.972,68.679ZM61.528,42.3C62.58,42.011 63.025,43.643 61.978,43.93C60.134,44.435 58.236,44.698 56.38,45.148C55.321,45.404 54.874,43.773 55.93,43.517C57.787,43.067 59.685,42.805 61.528,42.3ZM85.099,34.021C86.168,34.219 85.712,35.849 84.649,35.652C83.518,35.443 82.371,35.439 81.223,35.439C80.134,35.438 80.136,33.747 81.223,33.748C82.527,33.748 83.814,33.784 85.099,34.021ZM161.97,42.855C159.209,42.591 156.444,42.379 153.674,42.221C153.545,42.214 153.418,42.206 153.289,42.199C153.275,42.17 153.256,42.142 153.236,42.113C152.332,40.785 151.667,39.458 151.09,37.958C150.539,36.529 150.004,35.056 149.155,33.767C148.186,32.298 146.878,31.149 145.445,30.152C144.576,30.737 143.769,31.422 143.031,32.148C142.254,32.911 141.059,31.716 141.836,30.952C142.492,30.307 143.192,29.711 143.932,29.173C143.077,28.654 142.205,28.165 141.355,27.68C138.167,25.86 134.903,24.178 131.571,22.639C130.022,21.922 128.455,21.286 126.877,20.642C126.027,20.295 125.189,19.849 124.339,19.448C124.401,18.847 124.221,18.175 123.76,17.78C123.42,17.49 123.156,17.383 122.751,17.178C122.66,17.146 122.605,17.127 122.579,17.116C122.599,17.121 122.653,17.137 122.744,17.167C122.96,17.267 122.977,17.237 122.795,17.08C122.784,16.738 122.11,16.015 121.956,15.662C121.42,14.451 121.253,13.17 120.46,12.067C119.368,10.548 117.534,9.973 115.825,10.488C115.648,8.66 115.601,6.752 114.913,5.12C114.894,5.076 114.832,5.057 114.805,5.105C114.087,6.329 114.025,7.692 113.97,9.104C113.918,10.429 113.968,11.784 114.141,13.101C114.032,13.185 113.92,13.266 113.803,13.344C113.258,13.703 112.671,13.98 112.054,14.185C110.879,14.574 109.648,14.743 108.416,14.802C105.237,14.954 101.96,14.633 98.833,14.088C95.67,13.536 90.822,12.708 88.008,11.125C86.15,10.081 84.437,8.806 82.7,7.572C83.33,5.543 83.491,3.362 82.857,1.648C82.781,1.443 82.46,1.405 82.399,1.648C82.001,3.283 81.885,4.928 81.357,6.545C81.349,6.568 81.34,6.593 81.332,6.616C81.167,6.505 81.002,6.395 80.837,6.285C80.457,6.033 79.939,6.221 79.711,6.581C76.062,12.331 70.284,12.661 64.217,13.688C57.576,14.813 50.903,16.026 44.518,18.226C38.413,20.331 32.577,23.396 27.955,27.974C26.908,29.01 25.93,30.114 25.006,31.267C25.9,31.38 26.786,31.555 27.661,31.83C28.697,32.156 28.252,33.788 27.212,33.461C26.087,33.107 24.95,32.933 23.802,32.845C20.661,37.144 18.212,42.018 16.094,46.815C12.032,56.013 9.388,65.809 8.172,75.782C8.84,75.382 9.52,75 10.217,74.645C11.185,74.153 12.039,75.612 11.07,76.105C9.993,76.653 8.947,77.257 7.934,77.912C7.491,82.277 7.32,86.671 7.424,91.057C7.671,101.515 9.082,112.279 12.275,122.257C13.84,127.154 15.915,132.011 19.006,136.149C20.404,138.024 21.993,139.714 23.865,141.124C24.771,141.809 25.73,142.42 26.742,142.935C28.046,143.603 29.744,143.823 30.868,144.768C31.238,145.079 31.523,145.488 31.739,145.951C31.614,146.83 31.599,147.712 31.84,148.591C31.916,148.866 32.123,149.09 32.379,149.198C32.383,149.274 32.383,149.348 32.383,149.42C32.383,149.453 32.434,149.462 32.44,149.428C32.451,149.362 32.461,149.297 32.472,149.23C32.554,149.257 32.641,149.27 32.729,149.27C35.939,149.282 39.152,149.204 42.365,149.094C42.117,148.333 41.848,147.578 41.589,146.817C41.238,145.782 42.871,145.342 43.219,146.367C43.521,147.257 43.837,148.14 44.119,149.033C47.562,148.905 51.004,148.751 54.439,148.638C61.747,148.394 69.053,148.314 76.362,148.16C87.714,147.919 99.148,147.426 110.517,147.909C110.911,147.074 111.351,146.258 111.768,145.435C112.26,144.463 113.718,145.32 113.227,146.288C112.937,146.86 112.637,147.425 112.351,147.996C114.654,148.116 116.954,148.274 119.25,148.49C123.167,148.857 127.046,149.51 130.958,149.916C134.936,150.33 138.828,150.257 142.775,149.599C143.484,149.481 143.903,149.052 144.076,148.519C144.082,148.517 144.087,148.513 144.091,148.506C144.293,148.27 144.484,148.073 144.68,147.902C144.915,147.75 145.168,147.621 145.466,147.507C146.022,147.295 146.601,147.167 147.188,147.08C147.834,146.983 148.489,146.974 149.136,146.894C149.681,146.824 150.213,146.721 150.745,146.594C151.703,146.366 152.611,146.068 153.515,145.672C154.303,145.328 155.015,144.833 155.687,144.294C157.077,143.278 158.281,141.98 159.334,140.632C159.946,139.843 160.523,139.025 161.047,138.174C161.96,136.698 162.737,135.166 163.523,133.621C163.808,133.163 164.069,132.695 164.307,132.216C162.771,131.763 161.22,131.394 159.592,131.368C158.503,131.35 158.503,129.66 159.592,129.677C161.459,129.707 163.225,130.143 164.98,130.663C165.066,130.436 165.148,130.207 165.224,129.975C165.433,129.492 165.606,128.995 165.75,128.492C165.834,128.263 165.919,128.035 166.003,127.807C166.194,127.016 166.384,126.224 166.576,125.431C166.958,124.163 167.26,122.876 167.482,121.572C167.668,120.714 167.812,119.85 167.909,118.975C168.205,116.855 168.446,114.739 168.463,112.596C168.437,111.275 168.353,109.956 168.209,108.644C168.148,107.752 168.044,106.864 167.905,105.983C167.723,104.672 167.544,103.375 167.241,102.081C167.015,101.207 166.789,100.331 166.563,99.456C165.999,97.633 165.334,95.844 164.567,94.096C164.525,93.987 164.311,93.746 164.182,93.744C164.085,93.741 163.95,93.83 163.994,93.949C163.999,93.959 164.003,93.972 164.007,93.982C163.963,93.883 163.92,93.782 163.876,93.682C163.838,93.589 163.69,93.403 163.576,93.406C163.57,93.406 163.563,93.406 163.555,93.407C163.584,93.387 163.612,93.359 163.639,93.327C164.398,92.429 164.89,91.247 165.433,90.208C165.883,89.35 166.308,88.445 166.43,87.475C166.538,86.623 166.392,85.784 165.858,85.095C165.249,84.311 164.104,83.943 164.74,82.81C165.463,81.521 166.525,80.403 165.467,78.938C164.928,78.192 164.075,77.783 163.441,77.133C162.712,76.383 162.365,75.379 162.384,74.354C162.429,74.38 162.488,74.367 162.509,74.304C163.122,72.452 162.678,70.419 162.051,68.616C161.708,67.638 160.984,67.369 160.141,67.321C163.791,60.188 167.207,52.94 170.252,45.526C170.353,45.283 170.453,45.04 170.552,44.797C170.7,44.433 170.387,43.95 170.026,43.869C167.394,43.292 164.651,43.108 161.97,42.855Z"/>
                                                </g>
                                                <g id="head-Cornrows-2" serif:id="head/Cornrows-2" transform="matrix(1,0,0,1,78.5915,38.0431)">
                                                    <path id="Path" d="M32.538,12.541L34.363,14.712C33.352,15.424 32.398,16.14 31.501,16.859L31.5,16.857C35.656,14.144 40.259,12.541 45.231,12.541C54.807,12.541 74.259,20.77 78.656,26.706C80.838,29.652 84.894,38.695 86.997,48.526C88.687,56.426 91.201,78.743 88.687,87.129C85.47,97.861 74.885,107.781 63.971,107.781C53.057,107.781 36.113,99.898 24.053,82.624C23.501,81.835 17.169,80.919 12.652,77.954L13.838,91.026L14.739,98.63L14.54,99.171C11.305,107.924 8.741,112.491 6.848,112.871C4.918,113.259 0.985,110.092 -4.949,103.372L-5.707,100.188C-7.633,92.067 -8.596,87.707 -8.596,87.11L-8.594,87.001C-8.566,85.627 -8.093,77.847 -8.083,75.754L-8.083,44.376C-1.701,23.153 4.389,12.541 10.187,12.541L32.538,12.541Z" style="fill:white;"/>
                                                    <path id="ðŸ–-Ink6" serif:id="ðŸ–-Ink" d="M17.417,5.313C19.293,4.586 21.467,4.723 23.248,5.818C26.744,5.668 30.222,7.714 32.045,10.7C32.083,10.743 32.123,10.785 32.159,10.827L32.546,11.278C32.911,11.708 33.297,12.182 33.603,12.672C32.106,12.706 30.858,13.316 29.987,14.55C29.366,15.43 30.789,16.266 31.424,15.434L31.447,15.403C31.969,14.663 32.759,14.376 33.637,14.361C33.89,14.357 34.081,14.26 34.216,14.118C34.27,14.314 34.318,14.512 34.363,14.712C38.787,12.99 43.556,12.534 48.307,12.943C48.098,13.28 47.924,13.641 47.79,14.021C47.639,14.452 47.963,14.946 48.381,15.061C48.833,15.185 49.242,14.92 49.405,14.511L49.42,14.471C49.603,13.953 49.901,13.509 50.301,13.165C52.537,13.468 54.758,13.95 56.924,14.572C59.527,15.32 62.106,16.233 64.628,17.278C64.201,17.446 63.832,17.729 63.574,18.202C63.058,19.146 64.476,19.991 65.014,19.089L65.033,19.055C65.086,18.958 65.133,18.9 65.167,18.867L65.179,18.856L65.253,18.822L65.392,18.782L65.445,18.769C65.492,18.758 65.512,18.759 65.635,18.752C65.8,18.743 65.964,18.744 66.129,18.743C66.516,18.743 66.763,18.527 66.874,18.251C68.119,18.813 69.348,19.405 70.555,20.025L70.842,20.174C74.567,22.121 78.097,24.678 80.144,28.441C80.28,28.693 80.322,28.967 80.288,29.229C80.725,29.754 81.148,30.295 81.553,30.844C82.791,32.526 83.698,34.439 84.555,36.335C86.282,40.148 87.443,44.064 88.35,48.147C89.227,52.083 89.934,56.06 90.592,60.038C91.32,64.457 91.927,68.915 92.054,73.397C92.278,81.389 90.716,89.426 86.231,96.153C82.23,102.156 76.204,106.922 69.059,108.448C61.791,109.999 54.101,108.486 48.374,103.642C47.451,102.862 47.578,101.287 48.374,100.488C49.276,99.588 50.607,99.713 51.526,100.488C56.92,105.051 64.77,105.755 71.269,103.43C77.278,101.279 81.984,96.316 84.872,90.743C88.396,83.946 88.99,76.139 88.449,68.619C88.154,64.489 87.539,60.393 86.905,56.303L86.522,53.842C86.105,51.175 85.666,48.513 85.094,45.873L84.961,45.258C84.262,42.076 83.443,38.811 82.177,35.819C81.513,34.249 80.715,32.736 79.897,31.241C79.739,30.952 79.576,30.658 79.409,30.362C79.185,30.44 78.929,30.453 78.661,30.369C76.352,29.65 73.979,29.168 71.565,29.007C70.465,28.934 69.363,28.923 68.263,28.965C66.379,28.856 64.442,29.021 62.648,29.599C62.472,29.449 62.294,29.301 62.116,29.154C62.068,29.15 62.02,29.145 61.972,29.135C61.514,29.045 61.192,28.72 60.998,28.309C60.988,28.287 60.979,28.265 60.97,28.243C60.741,28.068 60.509,27.895 60.276,27.724C59.706,27.872 59.207,27.398 59.073,26.878C58.946,26.793 58.817,26.71 58.689,26.626C58.589,26.651 58.489,26.671 58.392,26.678C57.972,26.708 57.567,26.644 57.196,26.444C56.725,26.19 56.425,25.782 56.223,25.317C55.512,25.361 54.792,25.13 54.156,24.712C53.639,24.374 53.244,23.906 52.851,23.439C48.06,21.301 42.851,20.039 37.631,19.716C37.117,19.815 36.606,19.932 36.102,20.069C35.983,20.102 35.813,20.166 35.618,20.242C36.782,20.101 37.961,20.087 39.156,20.26C44.83,21.08 49.248,25.33 53.051,29.341C53.956,29.158 54.87,30.33 54.033,31.106L47.506,37.157C47.666,37.834 46.89,38.501 46.21,38.339C45.071,38.065 43.929,37.798 42.787,37.537C41.595,38.113 40.097,38.015 39.017,37.179C38.966,37.14 38.857,37.077 38.762,37.016C38.673,37.089 38.554,37.163 38.507,37.194C38.122,37.448 37.654,37.523 37.205,37.452C36.743,37.378 36.326,37.144 35.967,36.852C35.738,36.666 35.205,35.89 34.909,35.833L34.88,35.83C35.078,35.836 34.441,36.427 34.27,36.55C33.872,36.834 33.431,36.984 32.934,36.93C32.069,36.834 31.326,36.046 30.903,35.318L30.871,35.262L30.858,35.227L30.846,35.265C30.844,35.271 30.842,35.278 30.839,35.286C30.776,35.458 30.577,35.653 30.441,35.772C30.056,36.113 29.579,36.263 29.069,36.174C28.638,36.099 28.275,35.838 27.984,35.523L27.938,35.473C27.852,35.375 27.284,34.612 27.374,34.429L27.384,34.413L27.356,34.407C27.01,34.492 26.72,34.407 26.508,34.229C25.322,33.969 24.151,33.666 23.018,33.281C22.929,33.53 22.842,33.78 22.758,34.031C23.377,34.414 23.949,34.959 24.475,35.348C25.473,36.083 26.47,36.819 27.465,37.557L31.407,40.466L31.858,40.345C32.434,40.19 32.929,40.526 33.14,41.039L33.157,41.083C33.241,41.308 33.342,41.515 33.461,41.714C34.447,41.675 35.281,42.28 35.551,43.149C35.794,43.143 36.04,43.152 36.292,43.18C36.98,43.256 37.444,43.767 37.32,44.469L37.31,44.518L37.293,44.596C37.693,44.765 37.982,45.093 38.046,45.588C38.153,45.749 38.239,45.924 38.294,46.118C38.582,47.13 38.022,48.379 37.724,49.348L37.701,49.424C37.509,50.061 37.311,50.694 37.11,51.327L36.611,52.899C35.226,57.281 33.875,61.901 34.996,66.495C35.235,67.467 33.993,67.907 33.454,67.146C32.148,65.304 30.737,63.568 29.255,61.901L29.183,61.89C28.146,61.681 27.743,60.948 27.267,60.201C26.986,60.284 26.685,60.303 26.393,60.247C25.971,60.165 25.593,59.924 25.294,59.62C25.041,59.361 24.81,58.699 24.511,58.535C24.137,58.33 23.385,58.623 22.938,58.557C22.575,58.504 22.236,58.379 21.907,58.222C21.303,59.047 20.902,60.016 20.804,61.061C20.765,61.458 20.647,61.794 20.476,62.073C21.105,62.05 21.737,62.094 22.361,62.211C24.668,62.64 26.322,64.064 27.251,66.186C27.291,66.279 27.171,66.355 27.116,66.266C25.737,64.142 22.734,64.035 20.554,64.783C18.239,65.577 16.939,67.617 16.477,69.944C15.97,72.495 16.62,75.245 18.008,77.417C18.653,78.428 19.532,79.349 20.7,79.721C22.088,80.163 23.37,79.372 24.792,79.78C25.76,80.057 26.187,80.993 26.011,81.93C25.941,82.297 25.813,82.619 25.639,82.898C26.151,83.912 26.624,84.956 27.226,85.916C28.155,87.397 29.28,88.623 30.505,89.859C31.77,91.136 33.059,92.387 34.413,93.571C35.711,94.706 37.198,95.513 38.558,96.553C39.513,97.282 39.986,98.305 39.515,99.476C39.127,100.444 37.817,101.268 36.756,100.831C34.726,99.994 32.949,98.569 31.331,97.102C29.831,95.741 28.525,94.114 27.539,92.347C26.608,90.681 25.922,88.79 25.343,86.967L25.272,86.74C24.999,85.873 24.712,84.899 24.526,83.916C23.413,84.525 21.902,84.614 20.711,84.449C18.786,84.185 17.03,83.215 15.703,81.801C15.085,81.143 14.538,80.392 14.066,79.579C14.109,80.074 14.135,80.553 14.162,80.989C15.265,82.198 15.708,83.942 15.316,85.533C16.239,86.483 16.498,87.91 16.016,89.124C17.026,90.126 16.988,91.721 16.551,93.169C17.745,94.505 17.858,96.584 16.926,98.091L16.898,98.199C17.839,99.775 17.627,101.812 16.448,103.203C17.253,104.766 17.129,106.869 15.115,107.475C14.382,107.696 13.671,107.508 13.138,107.096C13.624,109.514 13.842,111.968 13.194,114.397C12.936,115.361 11.993,116.065 11.003,116.065C10.174,116.065 9.572,115.648 9.156,115.036C9.205,116.255 9.131,117.481 8.871,118.717C8.714,119.464 8.022,120.046 7.287,120.226C7.552,120.526 7.658,120.958 7.404,121.409C6.326,123.317 3.722,122.526 3.546,120.697C2.811,120.148 2.469,119.246 2.327,118.272C2.121,116.852 2.046,115.454 1.813,114.052L1.723,114.135L1.677,114.175L1.663,114.277C1.529,114.97 1.138,115.455 0.63,115.745C0.741,116.954 0.537,118.186 -0.23,119.104C-0.741,119.716 -1.611,119.957 -2.357,119.824C-2.404,119.827 -2.452,119.827 -2.502,119.82C-4.192,119.595 -5.169,117.992 -4.724,116.521C-5.405,115.687 -5.691,114.629 -5.49,113.583C-6.806,112.711 -6.779,110.796 -6.323,109.257C-7.703,108.168 -8.222,106.131 -7.529,104.512C-8.773,102.967 -8.946,100.814 -8.101,99.054C-9.469,97.93 -9.461,95.758 -8.104,94.608C-8.827,93.173 -9.263,91.453 -8.54,90.14C-9.05,89.577 -9.33,88.775 -9.271,88C-9.184,86.863 -8.432,86.076 -7.498,85.552L-7.433,85.196C-7.214,85.224 -6.98,85.162 -6.774,84.965C-6.571,84.769 -6.361,84.611 -6.144,84.481C-5.898,84.477 -5.687,84.368 -5.538,84.2C-5.131,84.061 -4.693,84 -4.208,83.995C-3.16,83.983 -3.123,82.415 -4.099,82.314C-4.253,82.158 -4.465,82.06 -4.695,82.06L-4.875,82.061C-5.296,82.065 -5.721,82.091 -6.112,82.259C-6.366,82.367 -6.562,82.531 -6.705,82.731C-6.732,83.035 -6.897,83.337 -7.254,83.586C-7.666,83.875 -8.23,83.908 -8.671,83.647C-9.288,83.282 -9.295,82.712 -9.223,82.093C-9.068,80.737 -9.847,79.461 -9.661,78.074C-9.579,77.461 -9.375,76.932 -9.042,76.504C-9.744,75.454 -9.868,74.097 -9.327,72.944C-10.453,71.733 -10.647,69.866 -9.93,68.408C-9.919,68.373 -9.911,68.337 -9.9,68.302C-9.819,68.054 -9.707,67.831 -9.584,67.617C-10.214,66.525 -10.209,65.185 -9.569,64.098C-10.539,62.967 -10.57,61.167 -9.707,59.948C-9.702,59.847 -9.692,59.746 -9.683,59.645C-10.079,58.617 -9.984,57.448 -9.482,56.492C-9.661,56.079 -9.799,55.634 -9.887,55.16C-10.114,53.938 -9.997,52.751 -9.659,51.559C-9.604,51.37 -9.543,51.182 -9.478,50.994C-9.467,50.178 -9.436,49.365 -9.395,48.554C-9.555,47.867 -9.581,47.112 -9.585,46.411L-9.586,45.957C-9.594,44.801 -9.674,43.107 -8.943,42.125C-9.413,41.063 -9.22,39.725 -8.437,38.883C-8.986,37.937 -9.102,36.776 -8.549,35.727C-8.46,35.558 -8.357,35.401 -8.245,35.252C-8.29,34.291 -8.088,33.3 -7.576,32.345C-7.244,31.723 -6.747,31.185 -6.157,30.754C-6.166,30.626 -6.173,30.499 -6.17,30.374C-6.16,29.815 -6.036,29.253 -5.827,28.729C-6.202,28.09 -6.376,27.369 -6.157,26.592C-5.911,25.713 -5.267,24.956 -4.462,24.529C-4.397,23.7 -4.268,22.876 -4.083,22.063C-4.577,20.961 -4.183,19.507 -3.066,18.858C-3.211,17.978 -3.08,17.065 -2.439,16.377C-2.197,16.116 -1.911,15.919 -1.603,15.788C-1.751,14.902 -1.584,13.981 -0.972,13.26C-0.472,12.672 0.269,12.314 1.023,12.261C1.313,10.721 2.783,9.57 4.335,9.662C4.529,8.984 4.992,8.393 5.711,8.093C5.895,8.016 6.081,7.966 6.266,7.938C7.528,6.664 9.406,5.801 11.032,5.36C12.664,4.918 14.317,4.875 15.718,5.389L15.82,5.427L15.934,5.412C16.428,5.357 16.922,5.326 17.417,5.313ZM5.022,109.664C4.586,109.528 4.1,109.825 3.982,110.255C3.857,110.709 4.135,111.158 4.572,111.295C5.117,111.465 5.689,111.507 6.257,111.507C6.714,111.508 7.102,111.119 7.102,110.662C7.102,110.203 6.716,109.817 6.257,109.817C5.796,109.816 5.455,109.799 5.022,109.664ZM1.146,100.686C0.495,100.687 -0.064,100.842 -0.547,101.299C-0.868,101.604 -0.877,102.192 -0.547,102.495C-0.213,102.801 0.27,102.819 0.613,102.527L0.678,102.468C0.686,102.461 0.692,102.455 0.697,102.45C0.725,102.433 0.753,102.415 0.782,102.399L0.727,102.435C0.685,102.466 0.782,102.416 0.837,102.393L0.854,102.386L0.859,102.385L0.903,102.381C0.984,102.377 1.065,102.377 1.146,102.377C1.588,102.377 2.012,101.989 1.991,101.532C1.971,101.074 1.62,100.686 1.146,100.686ZM13.438,95.323C14.352,94.762 13.535,93.326 12.618,93.843L12.585,93.863C12.114,94.151 11.536,94.112 11.003,94.112C9.916,94.113 9.914,95.804 11.003,95.803L11.183,95.803C11.964,95.797 12.754,95.742 13.438,95.323ZM6.239,89.151C5.547,89.021 4.773,88.905 4.046,88.984L3.925,88.999L3.702,88.999C3.507,88.999 3.319,89.078 3.168,89.201C2.929,89.3 2.702,89.433 2.496,89.612C1.672,90.326 2.872,91.518 3.691,90.808C3.736,90.768 3.789,90.736 3.848,90.709L3.893,90.69L4.797,90.69C4.879,90.69 4.959,90.673 5.037,90.648C5.331,90.689 5.604,90.747 5.789,90.782C6.852,90.982 7.308,89.353 6.239,89.151ZM5.467,72.924C4.142,72.309 2.675,72.314 1.45,73.167C0.574,73.778 1.388,75.217 2.271,74.648L2.303,74.627C2.413,74.551 2.526,74.487 2.64,74.429C3.262,74.608 3.888,74.617 4.489,74.396L4.567,74.366L4.614,74.384C5.594,74.839 6.454,73.382 5.467,72.924ZM19.892,70.275C18.553,70.125 18.543,68.01 19.892,68.161C22.74,68.481 25.324,69.747 27.217,71.923C28.097,72.934 26.647,74.414 25.75,73.448L25.723,73.417C24.218,71.687 22.187,70.532 19.892,70.275ZM4.9,59.417C4.603,59.385 4.306,59.368 4.014,59.383C3.312,59.416 2.457,59.885 2.765,60.731C3.012,61.409 3.822,61.436 4.221,61.074C4.388,61.078 4.554,61.089 4.719,61.106C5.16,61.152 5.598,61.236 6.033,61.321C7.095,61.53 7.55,59.901 6.482,59.691L6.01,59.597C5.85,59.566 5.69,59.536 5.528,59.508C5.432,59.46 5.328,59.428 5.218,59.419L5.162,59.417L4.9,59.417ZM-3.497,46.3L-3.596,46.286C-5.023,46.104 -7.314,46.272 -7.487,48.089C-7.583,49.095 -6.129,49.159 -5.842,48.298C-4.789,48.108 -3.726,48.072 -2.679,48.187C-2.28,47.781 -2.277,47.001 -2.942,46.807C-3.035,46.554 -3.231,46.338 -3.497,46.3ZM29.124,43.23C28.794,42.927 28.253,42.887 27.929,43.23C27.742,43.428 27.586,43.647 27.462,43.888L27.38,44.051C27.366,44.078 27.352,44.105 27.337,44.132C27.309,44.181 27.278,44.228 27.248,44.276L27.228,44.296C27.22,44.304 27.21,44.314 27.199,44.326C26.895,44.647 26.856,45.207 27.199,45.522C27.529,45.824 28.069,45.865 28.394,45.522C28.581,45.324 28.737,45.105 28.861,44.863L28.943,44.701C28.957,44.674 28.971,44.647 28.986,44.62C29.013,44.571 29.045,44.524 29.075,44.476L29.108,44.442C29.113,44.437 29.118,44.432 29.124,44.426C29.428,44.105 29.467,43.545 29.124,43.23ZM11.795,41.029C10.604,40.185 9.188,40.145 8.093,41.161C7.304,41.894 8.464,43.068 9.261,42.381L9.289,42.356C9.318,42.329 9.347,42.306 9.376,42.283C9.519,42.405 9.7,42.482 9.908,42.482C9.962,42.482 10.016,42.482 10.07,42.483L10.151,42.486L10.195,42.49L10.2,42.491L10.238,42.507C10.308,42.538 10.404,42.587 10.272,42.504C10.302,42.52 10.329,42.538 10.357,42.556L10.406,42.6C10.724,42.901 11.275,42.941 11.592,42.608C12.152,42.418 12.449,41.492 11.795,41.029ZM23.436,38.259L23.458,38.252C24.502,37.954 24.058,36.322 23.008,36.622C21.895,36.94 21.363,37.976 21.14,39.038C21.047,39.485 21.271,39.952 21.731,40.078C22.15,40.193 22.676,39.937 22.77,39.488C22.836,39.172 22.913,38.904 23.033,38.656L23.106,38.514C23.14,38.449 23.152,38.438 23.267,38.338C23.287,38.321 23.375,38.28 23.436,38.259ZM5.752,29.743L5.589,29.706C4.571,29.483 3.221,29.367 2.607,30.376C2.047,31.295 3.46,32.131 4.041,31.262C4.05,31.262 4.06,31.262 4.072,31.263L4.091,31.265L4.352,31.244C4.677,31.242 4.987,31.299 5.302,31.374C6.36,31.624 6.812,29.994 5.752,29.743ZM42.266,23.244C43.037,22.473 41.842,21.277 41.072,22.048C40.462,22.657 39.875,23.271 39.479,24.045C39.271,24.451 39.373,24.962 39.782,25.202C40.16,25.423 40.73,25.307 40.938,24.899C41.282,24.228 41.715,23.796 42.266,23.244ZM32.549,21.221C31.789,21.672 31.296,22.414 30.997,23.273C30.847,23.704 31.168,24.198 31.588,24.313C32.038,24.437 32.45,24.173 32.612,23.763L32.627,23.723C32.707,23.493 32.835,23.222 32.993,23.017C33.128,22.842 33.339,22.667 33.497,22.609C33.878,22.469 34.148,22.124 34.113,21.72C33.486,21.937 32.905,21.676 32.549,21.221ZM9.775,17.544C9.008,16.831 7.978,16.737 7.048,17.168C6.633,17.36 6.53,17.957 6.745,18.325C6.993,18.75 7.485,18.821 7.901,18.628C7.794,18.678 7.987,18.612 8.07,18.588C8.08,18.593 8.22,18.587 8.268,18.588L8.326,18.591C8.326,18.592 8.312,18.591 8.283,18.59C8.324,18.6 8.364,18.611 8.404,18.623L8.454,18.641C8.429,18.635 8.543,18.71 8.574,18.734L8.58,18.739C9.377,19.479 10.575,18.286 9.775,17.544Z"/>
                                                </g>
                                                <g id="face-Cute" serif:id="face/Cute" transform="matrix(1,0,0,1,112.183,77.3542)">
                                                    <path id="ðŸ–-Ink7" serif:id="ðŸ–-Ink" d="M37.507,43.398C38.232,42.119 40.395,42.327 40.726,43.819C41.396,46.844 37.79,49.638 35.051,49.707C32.33,49.777 29.276,47.459 29.67,44.532C29.767,43.808 30.734,43.896 31.063,44.35L31.191,44.524C32.087,45.727 33.268,46.972 34.929,46.679C35.618,46.558 36.243,46.127 36.659,45.573C37.161,44.905 37.106,44.107 37.507,43.398ZM20.2,21.265C20.569,21.164 20.941,21.203 21.268,21.342C21.998,21.476 22.607,22.085 22.822,22.779C22.839,22.84 22.857,22.899 22.878,22.958L22.911,23.046L22.823,22.823C22.864,23.042 23.042,23.273 23.107,23.493C23.186,23.764 23.205,24.071 23.178,24.369C23.41,24.372 23.642,24.379 23.874,24.399L24.097,24.419C25.349,24.536 26.722,24.749 27.464,25.831C27.881,26.439 27.49,27.533 26.724,27.65C25.546,27.831 24.531,27.178 23.357,27.048C22.247,26.924 21.086,26.995 19.99,27.195C17.728,27.609 15.649,28.526 13.445,29.102L13.145,29.178L13.145,29.177C12.767,29.268 12.339,28.742 12.712,28.435C14.478,26.984 16.739,25.808 18.967,25.091C18.642,24.575 18.542,23.895 18.764,23.341C18.798,23.226 18.841,23.114 18.886,23.003L18.979,22.774C18.988,22.666 19.009,22.559 19.039,22.454L19.044,22.422L19.047,22.424C19.213,21.885 19.646,21.418 20.2,21.265ZM42.731,21.349C43.214,20.865 43.893,20.937 44.397,21.317L44.464,21.37C44.939,21.581 45.332,22.042 45.59,22.47C45.858,22.914 46.036,23.366 46.043,23.855C47.212,23.859 48.332,24.21 49.191,25.154C49.468,25.459 49.657,25.929 49.505,26.342L49.414,26.588C49.126,27.368 47.83,27.817 47.389,26.9L47.369,26.855C46.901,25.765 45.105,25.879 44.15,25.991C43.484,26.069 42.827,26.234 42.184,26.42C41.958,26.485 41.734,26.556 41.509,26.628L41.285,26.701C41.166,26.74 40.543,27.078 40.93,26.998C41.034,26.976 41.113,27.128 41.007,27.179C40.545,27.4 40.052,26.96 40.083,26.464C40.136,25.602 41.504,25.13 42.162,24.833L42.201,24.815C42.453,24.698 42.718,24.587 42.99,24.483C42.837,24.255 42.71,24.001 42.605,23.729C42.505,23.472 42.439,23.222 42.402,22.949C42.366,22.815 42.366,22.682 42.402,22.548L42.407,22.51C42.389,22.421 42.38,22.33 42.381,22.238L42.377,22.202L42.381,22.202C42.394,21.88 42.522,21.558 42.731,21.349ZM35.014,30.522C36.869,31.096 39.931,32.659 38.964,35.07C37.613,37.285 34.033,35.657 32.297,34.942C30.739,34.425 29.927,36.611 31.434,37.27C43.89,42.199 43.844,29.189 35.465,29.38C34.543,29.401 34.514,30.332 35.014,30.522ZM18.534,13.558L18.85,13.465C20.495,12.989 22.174,12.166 23.634,13.45C24.208,13.954 24.326,15.002 23.915,15.631C22.981,17.064 21.595,16.845 20.085,16.968C18.936,17.061 17.804,17.398 16.731,17.82C15.854,18.165 15.041,18.651 14.273,19.193C13.519,19.726 13.004,20.559 12.23,21.039C11.947,21.214 11.619,21.034 11.517,20.748C11.156,19.737 11.766,18.477 12.282,17.616C12.912,16.564 13.868,15.705 14.897,15.054C16.024,14.342 17.269,13.93 18.534,13.558ZM42.5,12.47C45.28,12.469 47.955,14.016 49.51,16.283C50.038,17.054 49.651,18.195 48.892,18.639C48.041,19.137 47.132,18.778 46.571,18.064L46.538,18.021C45.646,16.833 44.496,15.898 43.134,15.288C42.469,14.991 41.734,14.75 41.015,14.628L40.782,14.588C40.456,14.533 40.078,14.481 39.784,14.532C39.626,14.553 39.481,14.605 39.348,14.684C39.412,14.825 39.246,14.994 39.093,14.91C38.402,14.53 38.487,13.853 39.057,13.327C39.865,12.582 41.457,12.47 42.5,12.47Z"/>
                                                </g>
                                                <g id="facial-hair-Goatee-1" serif:id="facial-hair/Goatee-1" transform="matrix(1,0,0,1,104.577,109.479)">
                                                    <path id="ðŸ–-Ink8" serif:id="ðŸ–-Ink" d="M43.926,6.621C41.576,5.563 37.357,6.486 35.825,6.854C32.264,7.708 28.682,9.554 27.575,12.446C26.328,15.706 28.817,16.732 29.183,16.565C31.648,16.738 34.584,15.188 37.167,14.788C39.264,14.46 41.476,14.174 43.441,13.06C44.875,13.849 48.115,14.276 50.73,14.966C52.957,15.554 53.922,16.828 55.986,16.557C58.461,16.232 57.448,11.026 54.69,8.917C51.672,6.609 46.567,5.673 43.926,6.621ZM48.578,28.882C46.522,29.383 46.384,24.876 46.154,23.284C45.974,22.04 44.959,18.832 42.387,18.97C39.815,19.108 38.848,21.796 38.978,23.468C39.063,24.552 40.061,30.043 36.874,30.738C34.842,30.731 32.491,30.594 30.354,30.2C27.839,29.63 24.569,27.635 23.705,31.564C23.394,32.978 34.472,37.179 39.388,37.559C44.374,38.569 50.207,37.015 53.757,33.2C54.564,32.332 56.839,28.729 57.001,27.846C57.341,25.992 56.553,24.798 54.259,25.452C52.638,26.317 49.9,28.559 48.578,28.882Z"/>
                                                </g>
                                                <g id="accessories-Glasses-2" serif:id="accessories/Glasses-2" transform="matrix(1,0,0,1,88.5211,88.9785)">
                                                    <path id="ðŸ–-Ink9" serif:id="ðŸ–-Ink" d="M78.657,20.175C76.092,22.826 71.81,23.587 68.398,22.165C59.635,18.503 63.924,7.079 70.682,4.012C71.526,3.801 72.654,3.302 73.682,3.188C73.775,3.143 73.977,3.275 74.223,3.15C81.674,3.982 83.371,15.554 78.657,20.175M50.394,20.854C47.517,24.671 42.169,25.849 37.799,24.074C29.166,20.673 32.228,10.543 38.135,6.572C50.612,1.882 55.764,13.815 50.394,20.854M31.68,12.396C31.672,12.392 31.664,12.39 31.656,12.386C31.702,12.366 31.747,12.346 31.793,12.326C31.778,12.364 31.762,12.403 31.747,12.441C31.725,12.426 31.705,12.408 31.68,12.396M84.596,8.27C83.892,8.271 82.875,8.387 82.292,8.876C80.854,4.025 75.546,-0.465 70.93,2.809C67.296,3.978 64.598,6.572 63.065,10.02C60.301,8.375 55.955,9.077 53.558,11.252C51.989,6.063 48.125,4.246 43.527,3.978C38.508,3.156 33.506,8.032 31.945,11.944C30.647,11.796 28.708,11.383 27.487,12.184C19.563,10.105 5.709,8.959 4.098,10.114C2.95,10.555 2.32,13.265 3.924,13.412C5.321,13.213 3.761,11.425 5.169,11.23C12.674,10.765 19.96,12.277 27.385,12.911C28.048,13.803 30.19,14.102 31.333,13.743C29.533,20.379 33.418,24.893 39.24,26.246C48.254,28.317 56.096,20.25 53.739,11.86C56.47,10.501 59.611,10.559 62.585,11.275C57.615,29.576 87.077,28.755 82.476,9.503C85.538,11.027 86.203,8.577 84.596,8.27"/>
                                                </g>
                                            </g>
                                        </g>
                                    </g>
                                </g>
                            </g>
                        </g>
                    </g>
                </g>
            </g>
            <g>
            </g>
        </g>
    </g>
</svg>
