<?xml version="1.0" encoding="UTF-8" standalone="no"?>
<!DOCTYPE svg PUBLIC "-//W3C//DTD SVG 1.1//EN" "http://www.w3.org/Graphics/SVG/1.1/DTD/svg11.dtd">
<svg width="100%" height="100%" viewBox="0 0 1920 216" version="1.1" xmlns="http://www.w3.org/2000/svg" xmlns:xlink="http://www.w3.org/1999/xlink" xml:space="preserve" xmlns:serif="http://www.serif.com/" style="fill-rule:evenodd;clip-rule:evenodd;stroke-linejoin:round;stroke-miterlimit:2;">
    <g transform="matrix(1,0,0,-1,0,216)">
        <rect x="0" y="0" width="1920" height="216" style="fill:rgb(42,54,59);"/>
    </g>
    <g transform="matrix(1,0,0,-1,0,216)">
        <path d="M0,71L18.8,77.8C37.7,84.7 75.3,98.3 113,101.3C150.7,104.3 188.3,96.7 226,88C263.7,79.3 301.3,69.7 339,75.7C376.7,81.7 414.3,103.3 452,117.2C489.7,131 527.3,137 565,142.2C602.7,147.3 640.3,151.7 678,141.5C715.7,131.3 753.3,106.7 791,105.7C828.7,104.7 866.3,127.3 903.8,123.8C941.3,120.3 978.7,90.7 1016.2,93.3C1053.7,96 1091.3,131 1129,136.7C1166.7,142.3 1204.3,118.7 1242,107C1279.7,95.3 1317.3,95.7 1355,98.3C1392.7,101 1430.3,106 1468,110.8C1505.7,115.7 1543.3,120.3 1581,114.3C1618.7,108.3 1656.3,91.7 1694,83.3C1731.7,75 1769.3,75 1807,80.2C1844.7,85.3 1882.3,95.7 1901.2,100.8L1920,106L1920,0L0,0L0,71Z" style="fill:rgb(207,70,71);fill-rule:nonzero;"/>
    </g>
    <g transform="matrix(1,0,0,-1,0,216)">
        <path d="M0,74L18.8,77.7C37.7,81.3 75.3,88.7 113,90.2C150.7,91.7 188.3,87.3 226,75.8C263.7,64.3 301.3,45.7 339,34.2C376.7,22.7 414.3,18.3 452,20C489.7,21.7 527.3,29.3 565,32C602.7,34.7 640.3,32.3 678,26.8C715.7,21.3 753.3,12.7 791,9.2C828.7,5.7 866.3,7.3 903.8,23.3C941.3,39.3 978.7,69.7 1016.2,76.8C1053.7,84 1091.3,68 1129,58.3C1166.7,48.7 1204.3,45.3 1242,52.5C1279.7,59.7 1317.3,77.3 1355,78C1392.7,78.7 1430.3,62.3 1468,57C1505.7,51.7 1543.3,57.3 1581,52.2C1618.7,47 1656.3,31 1694,36.2C1731.7,41.3 1769.3,67.7 1807,77C1844.7,86.3 1882.3,78.7 1901.2,74.8L1920,71L1920,0L0,0L0,74Z" style="fill:rgb(248,246,246);fill-rule:nonzero;"/>
    </g>
</svg>
